<svg xmlns="http://www.w3.org/2000/svg" width="116" height="70" viewBox="0 0 116 70" fill="none">
  <path d="M18.2762 0.5C18.2762 0.5 28.5372 10.761 22.7446 25.9875C16.952 41.214 32.6741 66.5343 32.6741 66.5343C32.6741 66.5343 32.5055 66.5096 32.193 66.4543C11.1157 62.7346 0.649796 38.6309 12.3658 20.7254C16.7165 14.0679 20.2996 6.25918 18.2762 0.5Z" fill="#8ED16F"/>
  <path d="M0 42.0023C0 42.0023 11.7088 40.1373 12.7757 50.6308C13.8427 61.1244 35.2906 62.5794 35.2906 62.5794C35.2906 62.5794 35.1452 62.6754 34.888 62.8469C17.1787 74.4757 0.250021 70.2515 2.8011 54.8158C3.75175 49.0755 3.67326 43.312 0 42.0023Z" fill="#8ED16F"/>
  <g opacity="0.3">
    <path opacity="0.3" d="M0 42.0023C0 42.0023 11.7088 40.1373 12.7757 50.6308C13.8427 61.1244 35.2906 62.5794 35.2906 62.5794C35.2906 62.5794 35.1452 62.6754 34.888 62.8469C17.1787 74.4757 0.250021 70.2515 2.8011 54.8158C3.75175 49.0755 3.67326 43.312 0 42.0023Z" fill="white"/>
  </g>
  <path d="M15.3123 41.872C17.0905 41.872 18.532 38.111 18.532 33.4716C18.532 28.8323 17.0905 25.0713 15.3123 25.0713C13.5341 25.0713 12.0925 28.8323 12.0925 33.4716C12.0925 38.111 13.5341 41.872 15.3123 41.872Z" fill="#8ED16F"/>
  <path opacity="0.3" d="M15.3123 41.872C17.0905 41.872 18.532 38.111 18.532 33.4716C18.532 28.8323 17.0905 25.0713 15.3123 25.0713C13.5341 25.0713 12.0925 28.8323 12.0925 33.4716C12.0925 38.111 13.5341 41.872 15.3123 41.872Z" fill="black"/>
  <path d="M15.018 63.9801C15.8656 63.1326 15.0234 60.9163 13.1371 59.03C11.2507 57.1436 9.03446 56.3015 8.18693 57.149C7.3394 57.9965 8.18154 60.2128 10.0679 62.0992C11.9543 63.9855 14.1705 64.8277 15.018 63.9801Z" fill="#8ED16F"/>
  <path opacity="0.3" d="M15.018 63.9801C15.8656 63.1326 15.0234 60.9163 13.1371 59.03C11.2507 57.1436 9.03446 56.3015 8.18693 57.149C7.3394 57.9965 8.18154 60.2128 10.0679 62.0992C11.9543 63.9855 14.1705 64.8277 15.018 63.9801Z" fill="black"/>
  <path d="M105.225 16.3428H29.0066C28.0856 16.3428 27.2023 16.7086 26.5511 17.3599C25.8998 18.0111 25.5339 18.8944 25.5339 19.8154V64.489C25.5339 65.41 25.8998 66.2933 26.5511 66.9446C27.2023 67.5958 28.0856 67.9617 29.0066 67.9617H105.225C106.146 67.9617 107.029 67.5958 107.68 66.9446C108.332 66.2933 108.698 65.41 108.698 64.489V19.8154C108.698 18.8944 108.332 18.0111 107.68 17.3599C107.029 16.7086 106.146 16.3428 105.225 16.3428Z" fill="url(#paint0_linear_4841_1283)"/>
  <path d="M104.111 16.9502H30.1186C28.1268 16.9502 26.5122 18.5648 26.5122 20.5566V63.7475C26.5122 65.7393 28.1268 67.3539 30.1186 67.3539H104.111C106.103 67.3539 107.718 65.7393 107.718 63.7475V20.5566C107.718 18.5648 106.103 16.9502 104.111 16.9502Z" fill="#7956D8"/>
  <path d="M107.718 25.7705H26.5122V35.0111H107.718V25.7705Z" fill="#7956D8"/>
  <path opacity="0.3" d="M107.718 25.7705H26.5122V35.0111H107.718V25.7705Z" fill="black"/>
  <path d="M100.018 41.8721H34.2135V46.3521H100.018V41.8721Z" fill="#D6D6E3"/>
  <path d="M39.6732 63.9951C43.2304 63.9951 46.1141 61.1114 46.1141 57.5542C46.1141 53.997 43.2304 51.1133 39.6732 51.1133C36.116 51.1133 33.2323 53.997 33.2323 57.5542C33.2323 61.1114 36.116 63.9951 39.6732 63.9951Z" fill="#7956D8"/>
  <path opacity="0.3" d="M39.6732 63.9951C43.2304 63.9951 46.1141 61.1114 46.1141 57.5542C46.1141 53.997 43.2304 51.1133 39.6732 51.1133C36.116 51.1133 33.2323 53.997 33.2323 57.5542C33.2323 61.1114 36.116 63.9951 39.6732 63.9951Z" fill="black"/>
  <g opacity="0.1">
    <path opacity="0.1" d="M115.47 69.2742C115.339 69.2769 115.209 69.3035 115.088 69.3527V69.2829C115.215 69.2702 115.342 69.2672 115.47 69.2742Z" fill="black"/>
  </g>
  <defs>
    <linearGradient id="paint0_linear_4841_1283" x1="67.1157" y1="67.9617" x2="67.1157" y2="16.3428" gradientUnits="userSpaceOnUse">
      <stop stop-color="#808080" stop-opacity="0.25"/>
      <stop offset="0.54" stop-color="#808080" stop-opacity="0.12"/>
      <stop offset="1" stop-color="#808080" stop-opacity="0.1"/>
    </linearGradient>
  </defs>
</svg>