<svg xmlns="http://www.w3.org/2000/svg" width="24" height="24" viewBox="0 0 24 24" fill="none">
                        <path fill-rule="evenodd" clip-rule="evenodd" d="M15.1652 3.02322C16.187 2.89257 17.2061 3.31385 18.2222 4.2699L18.2236 4.27121C19.2429 5.23513 19.7253 6.23129 19.6533 7.26113C19.5841 8.25142 19.0112 9.07944 18.3783 9.74803L17.3279 10.8599C17.2789 10.9346 17.2172 10.9997 17.146 11.0524L11.5408 16.9853C11.3353 17.2088 11.0631 17.3942 10.8098 17.5296C10.5528 17.667 10.2519 17.7868 9.96457 17.8379L9.95957 17.8388L7.27739 18.2969C6.59357 18.4147 5.92827 18.2447 5.45158 17.7926C4.97558 17.3412 4.76988 16.6869 4.84621 16L4.84647 15.9977L5.1564 13.2837C5.19456 12.9975 5.29978 12.693 5.42128 12.4325C5.54227 12.173 5.7095 11.8928 5.91166 11.6776L5.91312 11.6761L11.6043 5.65211C11.6104 5.64549 11.6165 5.63898 11.6228 5.63258L12.7548 4.4344C13.388 3.76552 14.1828 3.14886 15.1652 3.02322ZM17.2881 8.71773L16.4069 9.6504C14.7175 9.33515 13.3697 8.05996 12.9686 6.39231L13.8446 5.46507C14.3946 4.88419 14.8881 4.57088 15.3555 4.51111C15.7836 4.45636 16.3767 4.59332 17.1936 5.36166C18.0155 6.1391 18.1871 6.72607 18.157 7.15654C18.1241 7.62648 17.8385 8.13639 17.2881 8.71773ZM7.00493 12.7046L11.7997 7.62952C12.4351 9.14996 13.6881 10.333 15.2405 10.8851L10.4464 15.9593L10.4374 15.9691C10.3851 16.0265 10.2681 16.1183 10.1026 16.2068C9.93994 16.2938 9.79186 16.3447 9.70391 16.3607L7.02368 16.8185L7.02253 16.8187C6.73976 16.8674 6.57159 16.7875 6.48375 16.7042C6.39527 16.6203 6.30524 16.454 6.33693 16.1666L6.33704 16.1656L6.64413 13.4765C6.65704 13.3869 6.70176 13.2358 6.78072 13.0664C6.86158 12.8931 6.94873 12.7647 7.00493 12.7046ZM4.75 19.5327C4.33579 19.5327 4 19.8685 4 20.2827C4 20.697 4.33579 21.0327 4.75 21.0327H19.75C20.1642 21.0327 20.5 20.697 20.5 20.2827C20.5 19.8685 20.1642 19.5327 19.75 19.5327H4.75Z" fill="#7956D8"/>
                        </svg>