<svg xmlns="http://www.w3.org/2000/svg" width="20" height="20" viewBox="0 0 20 20" fill="none">
  <path fill-rule="evenodd" clip-rule="evenodd" d="M3.75 7.43072C3.75 6.33457 4.06004 5.65445 4.50514 5.24114C4.95863 4.82005 5.65136 4.5835 6.59722 4.5835H13.5417C14.4875 4.5835 15.1803 4.82005 15.6337 5.24114C16.0788 5.65445 16.3889 6.33457 16.3889 7.43072V12.2918C16.3889 13.388 16.0788 14.0681 15.6337 14.4814C15.1803 14.9025 14.4875 15.1391 13.5417 15.1391H6.59722C5.65136 15.1391 4.95863 14.9025 4.50514 14.4814C4.06004 14.0681 3.75 13.388 3.75 12.2918V7.43072ZM6.59722 3.3335C5.45975 3.3335 4.41637 3.61777 3.65458 4.32515C2.8844 5.04032 2.5 6.09632 2.5 7.43072V12.2918C2.5 13.6262 2.8844 14.6822 3.65458 15.3974C4.41637 16.1048 5.45975 16.3891 6.59722 16.3891H13.5417C14.6791 16.3891 15.7225 16.1048 16.4843 15.3974C17.2545 14.6822 17.6389 13.6262 17.6389 12.2918V7.43072C17.6389 6.09632 17.2545 5.04032 16.4843 4.32515C15.7225 3.61777 14.6791 3.3335 13.5417 3.3335H6.59722ZM13.9318 8.26627C14.2015 8.05085 14.2455 7.65757 14.0301 7.38787C13.8147 7.11816 13.4214 7.07415 13.1517 7.28957L10.9785 9.02535C10.4912 9.41296 9.64133 9.41304 9.15389 9.02559L9.15323 9.02506L6.9881 7.29018C6.71873 7.07434 6.32539 7.11774 6.10955 7.38711C5.89371 7.65648 5.9371 8.04982 6.20647 8.26566L8.37313 10.0018L8.37468 10.003C9.31778 10.7538 10.8143 10.7538 11.7574 10.003L13.9318 8.26627Z" fill="#7956D8"/>
</svg>