<svg xmlns="http://www.w3.org/2000/svg" width="20" height="20" viewBox="0 0 20 20" fill="none">
  <path fill-rule="evenodd" clip-rule="evenodd" d="M10.0694 3.75C9.56456 3.75 9.0735 3.80921 8.60283 3.92106C8.59748 3.95349 8.58955 3.98569 8.57897 4.01737C8.31131 4.81899 8.09828 5.63406 7.93989 6.45709C9.35563 6.30826 10.7833 6.30826 12.1991 6.45709C12.0407 5.63406 11.8276 4.81899 11.56 4.01738C11.5493 3.98544 11.5414 3.95325 11.536 3.92105C11.0654 3.80921 10.5743 3.75 10.0694 3.75ZM12.4008 7.73813C10.8525 7.54792 9.28643 7.54792 7.73818 7.73813C7.54797 9.28638 7.54797 10.8525 7.73818 12.4007C9.28643 12.5909 10.8525 12.5909 12.4008 12.4007C12.591 10.8525 12.591 9.28638 12.4008 7.73813ZM6.63684 6.63679C6.76118 5.90966 6.9253 5.1877 7.12923 4.47421C5.99823 5.06976 5.06979 5.99819 4.47423 7.12919C5.18773 6.92526 5.90971 6.76112 6.63684 6.63679ZM3.92105 8.60288C3.95326 8.59753 3.98546 8.58959 4.01742 8.57892C4.81904 8.31126 5.63411 8.09823 6.45714 7.93984C6.30832 9.35558 6.30832 10.7833 6.45714 12.199C5.63411 12.0406 4.81904 11.8276 4.01743 11.5599C3.98573 11.5494 3.95351 11.5414 3.92107 11.5361C3.80921 11.0654 3.75 10.5743 3.75 10.0694C3.75 9.56457 3.80921 9.07353 3.92105 8.60288ZM13.6818 7.93984C14.5048 8.09823 15.3199 8.31126 16.1215 8.57892C16.1535 8.58958 16.1856 8.59752 16.2178 8.60287C16.3297 9.07352 16.3889 9.56457 16.3889 10.0694C16.3889 10.5743 16.3297 11.0654 16.2178 11.5361C16.1854 11.5414 16.1532 11.5494 16.1215 11.5599C15.3199 11.8276 14.5048 12.0406 13.6818 12.199C13.8306 10.7833 13.8306 9.35558 13.6818 7.93984ZM15.6646 7.12917C14.9512 6.92525 14.2292 6.76112 13.5021 6.63679C13.3778 5.90967 13.2136 5.18772 13.0097 4.47424C14.1407 5.06979 15.0691 5.9982 15.6646 7.12917ZM6.63684 13.5021C5.9097 13.3777 5.18772 13.2136 4.47421 13.0097C5.06977 14.1407 5.99822 15.0691 7.12925 15.6647C6.92531 14.9512 6.76118 14.2292 6.63684 13.5021ZM12.1991 13.6818C10.7833 13.8306 9.35563 13.8306 7.93989 13.6818C8.09828 14.5048 8.31131 15.3199 8.57897 16.1215C8.58955 16.1532 8.59749 16.1854 8.60284 16.2178C9.0735 16.3297 9.56456 16.3889 10.0694 16.3889C10.5743 16.3889 11.0654 16.3297 11.536 16.2178C11.5414 16.1856 11.5493 16.1534 11.56 16.1215C11.8276 15.3199 12.0407 14.5048 12.1991 13.6818ZM13.0097 15.6647C13.2136 14.9512 13.3778 14.2292 13.5021 13.5021C14.2292 13.3777 14.9512 13.2136 15.6647 13.0097C15.0691 14.1407 14.1407 15.0691 13.0097 15.6647ZM2.5 10.0694C2.5 5.88896 5.88896 2.5 10.0694 2.5C14.2499 2.5 17.6389 5.88896 17.6389 10.0694C17.6389 14.2499 14.2499 17.6389 10.0694 17.6389C5.88896 17.6389 2.5 14.2499 2.5 10.0694Z" fill="#7956D8"/>
</svg>