<svg xmlns="http://www.w3.org/2000/svg" width="20" height="20" viewBox="0 0 20 20" fill="none">
  <path fill-rule="evenodd" clip-rule="evenodd" d="M4.7369 7.77028C5.34443 5.10029 7.61545 3.74842 9.94903 3.75C12.2828 3.75158 14.5524 5.1067 15.1567 7.77686L15.1567 7.77689C15.878 10.9629 13.9058 13.7324 12.014 15.5492L12.0128 15.5503C10.8599 16.6631 9.0347 16.6647 7.87318 15.5496C5.98818 13.7327 4.01582 10.9564 4.7369 7.77028ZM9.94988 2.5C12.7533 2.5019 15.6191 4.15719 16.3759 7.50093C17.2518 11.3701 14.8356 14.5724 12.8804 16.4502C11.2418 18.0312 8.65086 18.0296 7.00698 16.4508L7.00619 16.45C5.05806 14.5725 2.64197 11.363 3.51783 7.49395L3.51798 7.49331C4.27861 4.14961 7.1464 2.49811 9.94988 2.5ZM8.40523 8.89584C8.40523 8.0444 9.09546 7.35418 9.9469 7.35418C10.7983 7.35418 11.4886 8.0444 11.4886 8.89584C11.4886 9.74728 10.7983 10.4375 9.9469 10.4375C9.09546 10.4375 8.40523 9.74728 8.40523 8.89584ZM9.9469 6.10418C8.4051 6.10418 7.15523 7.35405 7.15523 8.89584C7.15523 10.4376 8.4051 11.6875 9.9469 11.6875C11.4887 11.6875 12.7386 10.4376 12.7386 8.89584C12.7386 7.35405 11.4887 6.10418 9.9469 6.10418Z" fill="#7956D8"/>
</svg>