<svg xmlns="http://www.w3.org/2000/svg" width="20" height="20" viewBox="0 0 20 20" fill="none">
  <path fill-rule="evenodd" clip-rule="evenodd" d="M5.82606 2.7085C5.12104 2.7085 4.48571 3.00872 3.94794 3.53618C3.52008 3.94104 3.20372 4.40367 3.00206 4.91552C2.80434 5.41043 2.70801 5.94058 2.70801 6.48627C2.70801 7.306 2.89733 8.14548 3.25698 8.99965L3.25776 9.00146C3.61226 9.83603 4.09529 10.6679 4.68673 11.4901L4.68885 11.493C5.28448 12.3111 5.9509 13.092 6.68753 13.8358L6.69182 13.8401C7.43571 14.5768 8.21638 15.243 9.04075 15.8451L9.04153 15.8457C9.86728 16.4469 10.7068 16.9297 11.5533 17.2904C12.4147 17.6574 13.255 17.8474 14.0622 17.8474C14.627 17.8474 15.1598 17.7422 15.6551 17.5361C16.1739 17.3232 16.6235 16.9939 17.0183 16.5588C17.2634 16.2884 17.4498 16.0001 17.5926 15.6976C17.7494 15.3655 17.8261 15.0175 17.8261 14.6738C17.8261 14.3836 17.7625 14.1307 17.6703 13.9L17.6663 13.8901L17.662 13.8804C17.5331 13.5873 17.3265 13.3564 17.0671 13.1761L14.7661 11.5424L14.7608 11.5389C14.564 11.4051 14.3652 11.2904 14.1599 11.2064C13.9424 11.1174 13.7232 11.0696 13.4997 11.0696C13.2051 11.0696 12.94 11.1531 12.6993 11.296C12.4706 11.4185 12.2595 11.5927 12.0662 11.7859L11.6401 12.2063C11.4618 12.1056 11.2173 11.9344 10.9039 11.6693C10.5535 11.3718 10.2058 11.0446 9.83752 10.6833C9.49003 10.3289 9.16773 9.97312 8.86346 9.6216C8.60043 9.31055 8.4256 9.06889 8.32365 8.8964L8.75163 8.45153C8.94225 8.26031 9.10958 8.05377 9.23335 7.83711C9.38076 7.59172 9.46495 7.31694 9.46495 7.02794C9.46495 6.79309 9.40502 6.56448 9.31926 6.36297C9.235 6.15825 9.1194 5.95778 8.97352 5.75492L7.36544 3.48836C7.17306 3.21175 6.92541 3.01874 6.65474 2.893C6.39255 2.76799 6.1065 2.7085 5.82606 2.7085ZM5.82606 3.9585C5.5054 3.9585 5.17017 4.08705 4.82007 4.43168L4.81534 4.43634L4.81051 4.4409C4.50515 4.72896 4.29556 5.04201 4.16461 5.37482L4.16332 5.37812C4.02813 5.71607 3.95801 6.08812 3.95801 6.48627C3.95801 7.11073 4.10189 7.78484 4.40865 8.51366C4.72059 9.2478 5.15374 9.9985 5.70048 10.7588C6.25678 11.5227 6.88094 12.2545 7.57357 12.954C8.27329 13.6468 9.00561 14.2715 9.77746 14.8353C10.535 15.3868 11.2926 15.8206 12.0433 16.1405C12.7791 16.454 13.4527 16.5974 14.0622 16.5974C14.4689 16.5974 14.8383 16.5223 15.176 16.3816L15.1793 16.3802C15.507 16.2459 15.8071 16.0334 16.0924 15.7191C16.25 15.5451 16.3691 15.3612 16.4623 15.1638C16.5416 14.996 16.5761 14.83 16.5761 14.6738C16.5761 14.5783 16.5576 14.487 16.5142 14.3758C16.4902 14.3249 16.4473 14.2674 16.3523 14.2015L16.3462 14.1973L14.0529 12.5691C13.9049 12.4688 13.7858 12.4039 13.6866 12.3634C13.5987 12.3274 13.54 12.3196 13.4997 12.3196C13.4542 12.3196 13.4056 12.3292 13.3316 12.3743L13.314 12.385L13.2957 12.3946C13.2126 12.4379 13.0969 12.5229 12.9486 12.6713L12.9456 12.6742L12.419 13.1939C12.232 13.38 11.9859 13.4932 11.6941 13.4932C11.5832 13.4932 11.4479 13.4807 11.3011 13.4256L11.2876 13.4206L11.2743 13.4149C11.2444 13.4021 11.2166 13.3894 11.1979 13.3807L11.1924 13.3782L11.1696 13.3679L11.1643 13.3656C11.1636 13.3653 11.1632 13.3651 11.1632 13.3651L11.1325 13.3528L11.1031 13.3373C10.8124 13.1834 10.4756 12.9443 10.096 12.6231L10.0952 12.6224C9.71085 12.2961 9.33774 11.9442 8.95772 11.5712L8.95351 11.5671L8.94938 11.5629C8.57709 11.1834 8.23482 10.8054 7.91596 10.4369L7.91142 10.4317C7.5948 10.0575 7.34858 9.72165 7.19405 9.43833L7.1674 9.38948L7.1507 9.3394C7.15011 9.33793 7.14777 9.33208 7.14195 9.31834L7.13953 9.31262C7.1309 9.29228 7.1164 9.2581 7.10197 9.21961L7.08947 9.18628L7.08084 9.15175C7.05669 9.05515 7.04134 8.9552 7.04134 8.84044C7.04134 8.58001 7.13069 8.32833 7.33033 8.12594L7.85901 7.57639L7.86329 7.57211C8.00164 7.43376 8.09465 7.31143 8.15002 7.21346L8.15499 7.20466L8.16025 7.19603C8.20396 7.12421 8.21495 7.0688 8.21495 7.02794C8.21495 7.00079 8.2064 6.93952 8.16826 6.85053L8.16418 6.84101C8.12387 6.74245 8.0601 6.62557 7.95774 6.48341L7.9552 6.47988L6.33994 4.20316C6.28365 4.12186 6.21436 4.06645 6.12665 4.02597L6.11808 4.02201C6.03421 3.98175 5.93299 3.9585 5.82606 3.9585Z" fill="black"/>
</svg> 