<svg xmlns="http://www.w3.org/2000/svg" width="19" height="22" viewBox="0 0 19 22">
  <path fill-rule="evenodd" clip-rule="evenodd" d="M15.7689 11.5804C15.7907 9.88395 16.6801 8.31693 18.1254 7.42836C17.2095 6.12025 15.7304 5.32062 14.1343 5.27068C12.455 5.09442 10.8271 6.27551 9.97139 6.27551C9.09912 6.27551 7.78162 5.28818 6.36289 5.31737C4.49621 5.37768 2.79814 6.41327 1.88997 8.04524C-0.0440345 11.3937 1.39856 16.3147 3.25117 19.0213C4.17807 20.3467 5.26135 21.8271 6.6788 21.7746C8.06586 21.7171 8.5839 20.8901 10.2582 20.8901C11.917 20.8901 12.403 21.7746 13.8492 21.7412C15.3376 21.7171 16.2753 20.41 17.1697 19.0721C17.8357 18.1277 18.3481 17.084 18.6881 15.9796C16.9204 15.2319 15.7709 13.4998 15.7689 11.5804Z" fill="white"/>
  <path fill-rule="evenodd" clip-rule="evenodd" d="M13.0373 3.49062C13.8488 2.51641 14.2486 1.26423 14.1518 0C12.9119 0.13022 11.7667 0.72278 10.9442 1.65961C10.132 2.58392 9.72059 3.79316 9.80049 5.021C11.0569 5.03394 12.2499 4.46988 13.0373 3.49062Z" fill="white"/>
</svg>