<svg xmlns="http://www.w3.org/2000/svg" width="20" height="20" viewBox="0 0 20 20" fill="none">
  <path fill-rule="evenodd" clip-rule="evenodd" d="M4.5218 4.5218C4.04715 4.99645 3.75 5.69759 3.75 6.59722V10.7639C3.75 11.6636 4.04715 12.3647 4.5218 12.8393C4.99645 13.314 5.69759 13.6112 6.59722 13.6112C6.9424 13.6112 7.22222 13.891 7.22222 14.2362V15.7153C7.22222 15.7352 7.22694 15.7451 7.23064 15.751C7.23554 15.7588 7.2443 15.7678 7.25741 15.7748C7.27056 15.7818 7.28337 15.7842 7.29321 15.7839C7.30088 15.7837 7.31148 15.7819 7.32692 15.7716L10.4177 13.7158C10.5203 13.6475 10.6407 13.6112 10.7639 13.6112H13.5417C14.4413 13.6112 15.1424 13.314 15.6171 12.8393C16.0917 12.3647 16.3889 11.6636 16.3889 10.7639V6.59722C16.3889 5.69759 16.0917 4.99645 15.6171 4.5218C15.1424 4.04715 14.4413 3.75 13.5417 3.75H6.59722C5.69759 3.75 4.99645 4.04715 4.5218 4.5218ZM3.63792 3.63792C4.37855 2.89729 5.41353 2.5 6.59722 2.5H13.5417C14.7254 2.5 15.7603 2.89729 16.501 3.63792C17.2416 4.37855 17.6389 5.41353 17.6389 6.59722V10.7639C17.6389 11.9476 17.2416 12.9826 16.501 13.7232C15.7603 14.4639 14.7254 14.8612 13.5417 14.8612H10.9528L8.02029 16.8117C7.14944 17.3917 5.97222 16.7732 5.97222 15.7153V14.8227C5.04983 14.7067 4.24499 14.3303 3.63792 13.7232C2.89729 12.9826 2.5 11.9476 2.5 10.7639V6.59722C2.5 5.41353 2.89729 4.37855 3.63792 3.63792ZM8.29173 7.35418C8.29173 6.37014 9.08539 5.57638 10.0695 5.57638C11.0536 5.57638 11.8472 6.37014 11.8472 7.35418C11.8472 8.13987 11.3274 8.55294 11.0067 8.77211C10.8739 8.86388 10.7986 8.92936 10.7528 8.99078C10.7185 9.03681 10.6945 9.08786 10.6945 9.18057V9.32638C10.6945 9.67155 10.4147 9.95138 10.0695 9.95138C9.72431 9.95138 9.44449 9.67155 9.44449 9.32638V9.18057C9.44449 8.37762 9.97672 7.96428 10.2977 7.74264L10.3004 7.74081L10.3004 7.74082C10.4262 7.65488 10.4987 7.59108 10.5421 7.53245C10.575 7.48805 10.5972 7.43978 10.5972 7.35418C10.5972 7.06044 10.3632 6.82638 10.0695 6.82638C9.77581 6.82638 9.54173 7.06044 9.54173 7.35418C9.54173 7.69935 9.26191 7.97918 8.91673 7.97918C8.57155 7.97918 8.29173 7.69935 8.29173 7.35418ZM10.0664 10.3611C9.72121 10.3611 9.44139 10.6409 9.44139 10.9861C9.44139 11.3312 9.72121 11.6111 10.0664 11.6111H10.0726C10.4178 11.6111 10.6976 11.3312 10.6976 10.9861C10.6976 10.6409 10.4178 10.3611 10.0726 10.3611H10.0664Z" fill="#7956D8"/>
</svg>