<svg xmlns="http://www.w3.org/2000/svg" width="20" height="20" viewBox="0 0 20 20" fill="none">
                    <path fill-rule="evenodd" clip-rule="evenodd" d="M3.75163 6.80574C3.76959 5.72771 3.93479 5.25722 4.18162 5.01318C4.44577 4.752 4.9707 4.5835 6.20833 4.5835H13.9236C15.165 4.5835 15.6918 4.75207 15.9568 5.01359C16.204 5.25756 16.3693 5.72769 16.3873 6.80574H3.75163ZM2.5 7.43074V7.00711C2.5 5.79154 2.63909 4.78049 3.30275 4.1243C3.96396 3.47054 4.98069 3.3335 6.20833 3.3335H13.9236C15.1544 3.3335 16.1728 3.47048 16.8349 4.12389C17.4998 4.78016 17.6389 5.7916 17.6389 7.00711V7.43074V12.7085C17.6389 13.9241 17.4998 14.9351 16.8361 15.5913C16.1749 16.2451 15.1582 16.3821 13.9306 16.3821H6.20924C4.98207 16.3855 3.96494 16.2509 3.30318 15.5978C2.63897 14.9423 2.5 13.9307 2.5 12.7154V7.43074ZM16.3889 8.05574V12.7085C16.3889 13.9304 16.219 14.4437 15.9573 14.7024C15.6931 14.9636 15.1682 15.1321 13.9306 15.1321L6.20833 15.1321L6.20657 15.1321C4.96885 15.1356 4.44463 14.9681 4.1812 14.7081C3.92005 14.4504 3.75 13.9377 3.75 12.7154V8.05574H16.3889ZM5.90281 12.3613C5.55763 12.3613 5.27781 12.6411 5.27781 12.9863C5.27781 13.3315 5.55763 13.6113 5.90281 13.6113H7.2917C7.63688 13.6113 7.9167 13.3315 7.9167 12.9863C7.9167 12.6411 7.63688 12.3613 7.2917 12.3613H5.90281ZM8.40281 12.9863C8.40281 12.6411 8.68263 12.3613 9.02781 12.3613H11.8056C12.1508 12.3613 12.4306 12.6411 12.4306 12.9863C12.4306 13.3315 12.1508 13.6113 11.8056 13.6113H9.02781C8.68263 13.6113 8.40281 13.3315 8.40281 12.9863Z" fill="#7956D8"/>
                    </svg>