<svg xmlns="http://www.w3.org/2000/svg" width="20" height="20" viewBox="0 0 20 20" fill="none">
<path fill-rule="evenodd" clip-rule="evenodd" d="M7.07609 6.59722C7.07609 5.02474 8.35084 3.75 9.92331 3.75C11.4958 3.75 12.7705 5.02474 12.7705 6.59722C12.7705 8.1697 11.4958 9.44444 9.92331 9.44444C8.35084 9.44444 7.07609 8.1697 7.07609 6.59722ZM9.92331 2.5C7.66048 2.5 5.82609 4.33439 5.82609 6.59722C5.82609 8.86006 7.66048 10.6944 9.92331 10.6944C12.1861 10.6944 14.0205 8.86006 14.0205 6.59722C14.0205 4.33439 12.1861 2.5 9.92331 2.5ZM9.92328 11.5278C6.41255 11.5278 3.33301 13.8673 3.33301 17.0139C3.33301 17.359 3.61283 17.6389 3.95801 17.6389C4.30319 17.6389 4.58301 17.359 4.58301 17.0139C4.58301 14.7854 6.85068 12.7778 9.92328 12.7778C12.9959 12.7778 15.2636 14.7854 15.2636 17.0139C15.2636 17.359 15.5434 17.6389 15.8886 17.6389C16.2337 17.6389 16.5136 17.359 16.5136 17.0139C16.5136 13.8673 13.434 11.5278 9.92328 11.5278Z" fill="#7956D8"/>
                    </svg>  