<svg xmlns="http://www.w3.org/2000/svg" width="20" height="20" viewBox="0 0 20 20" fill="none">
  <path fill-rule="evenodd" clip-rule="evenodd" d="M7.08773 3.75965C7.09249 3.75489 7.10073 3.75 7.11454 3.75C7.12834 3.75 7.13658 3.75489 7.14135 3.75965L7.96329 4.5816H6.26578L7.08773 3.75965ZM8.02523 2.87577C7.52421 2.37474 6.70487 2.37474 6.20385 2.87577L5.21773 3.86188C5.01475 4.06486 4.89376 4.31842 4.85527 4.5816H4.51389C3.85732 4.5816 3.31133 4.77946 2.9452 5.20933C2.5954 5.62003 2.5 6.13914 2.5 6.59549V7.28994C2.5 7.74629 2.5954 8.2654 2.9452 8.6761C3.1048 8.86349 3.29859 9.00679 3.52081 9.10883V14.2343C3.52081 15.3106 3.69213 16.2271 4.31151 16.8464C4.93089 17.4658 5.8473 17.6371 6.92359 17.6371H12.4791C13.5554 17.6371 14.4718 17.4658 15.0912 16.8464C15.7106 16.2271 15.8819 15.3106 15.8819 14.2343V9.11947C16.1119 9.0172 16.313 8.87178 16.4788 8.68172C16.8318 8.27711 16.9444 7.76156 16.9444 7.28994V6.59549C16.9444 6.12387 16.8318 5.60832 16.4788 5.20372C16.1123 4.78361 15.5737 4.5816 14.9306 4.5816H14.5821C14.5436 4.31842 14.4226 4.06486 14.2196 3.86188L13.2335 2.87577C12.7325 2.37474 11.9132 2.37474 11.4121 2.87577L9.71869 4.56923L8.02523 2.87577ZM3.89681 6.01985C3.81779 6.11262 3.75 6.28796 3.75 6.59549V7.28994C3.75 7.59747 3.81779 7.77281 3.89681 7.86558C3.95888 7.93845 4.10499 8.05153 4.50177 8.05379H7.59715H11.7846H14.942C15.3114 8.05158 15.4649 7.94248 15.5368 7.85997C15.6231 7.76109 15.6944 7.5822 15.6944 7.28994V6.59549C15.6944 6.30323 15.6231 6.12434 15.5368 6.02547C15.4641 5.9421 15.3083 5.8316 14.9306 5.8316H4.51389C4.10795 5.8316 3.9595 5.94624 3.89681 6.01985ZM8.22215 9.30383H11.1596V12.2413C11.1596 12.2612 11.1549 12.271 11.1512 12.277C11.1463 12.2848 11.1376 12.2938 11.1244 12.3008C11.1113 12.3078 11.0985 12.3102 11.0886 12.3099C11.0811 12.3097 11.0707 12.308 11.0557 12.2981L10.4396 11.8828L10.4369 11.881C9.99472 11.5862 9.42634 11.5918 8.98677 11.8763L8.33402 12.3068C8.31688 12.3174 8.30436 12.3195 8.29525 12.3197C8.28382 12.3199 8.27043 12.3171 8.25744 12.3101C8.24451 12.3031 8.2359 12.2942 8.23099 12.2862C8.22721 12.2802 8.22215 12.2696 8.22215 12.2482V9.30383ZM6.97215 9.30383V12.2482C6.97215 13.3079 8.13821 13.9178 9.01114 13.3576L9.66714 12.9249C9.69887 12.905 9.72687 12.9103 9.74293 12.9207L10.3589 13.3359L10.3616 13.3377C11.2325 13.9183 12.4096 13.2993 12.4096 12.2413V9.30383H14.6319V14.2343C14.6319 15.2414 14.456 15.7139 14.2073 15.9625C13.9587 16.2112 13.4862 16.3871 12.4791 16.3871H6.92359C5.91655 16.3871 5.44407 16.2112 5.19539 15.9625C4.94672 15.7139 4.77081 15.2414 4.77081 14.2343V9.30383H6.97215ZM12.3228 3.75C12.309 3.75 12.3008 3.75489 12.296 3.75965L11.4741 4.5816H13.1716L12.3496 3.75965C12.3449 3.75489 12.3366 3.75 12.3228 3.75Z" fill="#7956D8"/>
</svg>