<svg xmlns="http://www.w3.org/2000/svg" width="20" height="20" viewBox="0 0 20 20" fill="none">
  <path d="M10.2777 11.9714C11.4283 11.9714 12.361 11.0386 12.361 9.88802C12.361 8.73743 11.4283 7.80469 10.2777 7.80469C9.12708 7.80469 8.19434 8.73743 8.19434 9.88802C8.19434 11.0386 9.12708 11.9714 10.2777 11.9714Z" stroke="#7956D8" stroke-width="1.5" stroke-miterlimit="10" stroke-linecap="round" stroke-linejoin="round"/>
  <path d="M3.33301 10.4994V9.27718C3.33301 8.55496 3.92329 7.95773 4.65245 7.95773C5.9094 7.95773 6.42329 7.06884 5.79134 5.97857C5.43023 5.35357 5.64551 4.54107 6.27745 4.17996L7.47884 3.49246C8.02745 3.16607 8.73579 3.36051 9.06218 3.90912L9.13856 4.04107C9.76356 5.13134 10.7913 5.13134 11.4233 4.04107L11.4997 3.90912C11.8261 3.36051 12.5344 3.16607 13.083 3.49246L14.2844 4.17996C14.9163 4.54107 15.1316 5.35357 14.7705 5.97857C14.1386 7.06884 14.6525 7.95773 15.9094 7.95773C16.6316 7.95773 17.2288 8.54801 17.2288 9.27718V10.4994C17.2288 11.2216 16.6386 11.8188 15.9094 11.8188C14.6525 11.8188 14.1386 12.7077 14.7705 13.798C15.1316 14.43 14.9163 15.2355 14.2844 15.5966L13.083 16.2841C12.5344 16.6105 11.8261 16.4161 11.4997 15.8675L11.4233 15.7355C10.7983 14.6452 9.77051 14.6452 9.13856 15.7355L9.06218 15.8675C8.73579 16.4161 8.02745 16.6105 7.47884 16.2841L6.27745 15.5966C5.64551 15.2355 5.43023 14.423 5.79134 13.798C6.42329 12.7077 5.9094 11.8188 4.65245 11.8188C3.92329 11.8188 3.33301 11.2216 3.33301 10.4994Z" stroke="#7956D8" stroke-width="1.5" stroke-miterlimit="10" stroke-linecap="round" stroke-linejoin="round"/>
</svg>