<svg  xmlns="http://www.w3.org/2000/svg" width="45" height="36" viewBox="0 0 45 36" fill="none">
                        <path d="M39.7222 0H4.50373C3.30965 0.00134454 2.16484 0.476291 1.3205 1.32064C0.476147 2.16499 0.00120926 3.30979 -0.000133514 4.50388V23.7712C0.00120926 24.9653 0.476147 26.1101 1.3205 26.9544C2.16484 27.7988 3.30965 28.2737 4.50373 28.275H39.7222C40.9163 28.2737 42.0611 27.7988 42.9054 26.9544C43.7498 26.1101 44.2247 24.9653 44.2261 23.7712V4.50388C44.2247 3.30979 43.7498 2.16499 42.9054 1.32064C42.0611 0.476291 40.9163 0.00134454 39.7222 0Z" fill="#F2F2F2"/>
                        <path d="M39.7224 1.29639H4.5039C3.65356 1.29734 2.83832 1.63556 2.23704 2.23684C1.63576 2.83812 1.29753 3.65336 1.29658 4.5037V23.771C1.29753 24.6213 1.63576 25.4366 2.23704 26.0378C2.83832 26.6391 3.65356 26.9773 4.5039 26.9783H39.7224C40.5727 26.9773 41.388 26.6391 41.9892 26.0378C42.5905 25.4365 42.9287 24.6213 42.9297 23.771V4.5037C42.9287 3.65336 42.5905 2.83813 41.9893 2.23685C41.388 1.63557 40.5727 1.29735 39.7224 1.29639Z" fill="white"/>
                        <path d="M39.3786 35.1733C39.4849 35.173 39.5901 35.1518 39.6881 35.1107C39.8344 35.0519 39.9596 34.9503 40.0472 34.8192C40.1348 34.6881 40.1808 34.5335 40.1792 34.3758V27.7153L31.2994 27.4165L38.8212 34.9383C38.8939 35.0124 38.9806 35.0714 39.0763 35.1117C39.172 35.1521 39.2748 35.173 39.3786 35.1733Z" fill="#F2F2F2"/>
                        <path d="M7.00001 6H14.1704C14.7227 6 15.1704 6.44772 15.1704 7V21.5C15.1704 22.0523 14.7227 22.5 14.1704 22.5H7.00001C6.44772 22.5 6.00001 22.0523 6.00001 21.5V7C6.00001 6.44772 6.44772 6 7.00001 6Z" fill="#F2F2F2"/>
                        <path d="M18.8296 6H26C26.5523 6 27 6.44772 27 7V21.5C27 22.0523 26.5523 22.5 26 22.5H18.8296C18.2773 22.5 17.8296 22.0523 17.8296 21.5V7C17.8296 6.44772 18.2773 6 18.8296 6Z" fill="#F2F2F2"/>
                        <path d="M31 6H38.1704C38.7227 6 39.1704 6.44772 39.1704 7V21.5C39.1704 22.0523 38.7227 22.5 38.1704 22.5H31C30.4477 22.5 30 22.0523 30 21.5V7C30 6.44772 30.4477 6 31 6Z" fill="#F2F2F2"/>
                    </svg>