<svg xmlns="http://www.w3.org/2000/svg" width="70" height="106" viewBox="0 0 70 106" fill="none">
                        <path d="M22.5485 74.4108L21.3111 84.1592L19.49 73.0853C10.7383 69.7269 0.505441 69.0747 0.505441 69.0747C0.505441 69.0747 -1.75271 90.2251 5.70292 99.0688C13.1586 107.912 21.0192 106.568 27.5047 101.101C33.99 95.6332 36.6442 88.1131 29.1886 79.2694C27.5291 77.3009 25.1866 75.7045 22.5485 74.4108Z" fill="#F2F2F2"/>
                        <path d="M20.1219 85.6333L20.4894 86.0692C24.7353 91.1581 27.2137 95.832 27.8838 100.029C27.8946 100.09 27.9015 100.151 27.9123 100.212L27.6281 100.256L27.3544 100.295C26.6803 95.7205 23.7563 90.9165 20.0541 86.4768C19.9362 86.3326 19.8165 86.1862 19.6924 86.0434C18.1086 84.1779 16.3987 82.3817 14.6652 80.6977C14.5322 80.5662 14.3952 80.4343 14.2582 80.3025C11.9587 78.0915 9.63787 76.0831 7.56496 74.3862C7.41898 74.2656 7.27086 74.1468 7.12454 74.0302C3.60412 71.1725 0.86214 69.2644 0.250787 68.8458C0.177135 68.7934 0.135411 68.7658 0.125977 68.759L0.281869 68.5279L0.282207 68.5239L0.440258 68.291C0.449702 68.2978 0.590084 68.3899 0.843348 68.5677C1.7947 69.2276 4.35039 71.0417 7.51929 73.6051C7.66163 73.7214 7.80977 73.8402 7.95573 73.9608C9.63938 75.3361 11.4785 76.9089 13.3314 78.6251C13.7975 79.0554 14.2517 79.4847 14.694 79.9129C14.8331 80.043 14.9701 80.1748 15.1032 80.3063C16.9773 82.1265 18.6502 83.9022 20.1219 85.6333Z" fill="white"/>
                        <path d="M7.51904 73.6048C7.39083 73.7461 7.26047 73.8893 7.12429 74.0299C6.75501 74.4124 6.36638 74.7758 5.95993 75.1186C4.22942 76.5814 2.19276 77.6373 0 78.2086C0.0057832 78.3993 0.011578 78.5901 0.0170232 78.7849C2.33827 78.2012 4.49544 77.0948 6.32379 75.5502C6.75765 75.1842 7.17186 74.7956 7.56471 74.3859C7.69871 74.2471 7.82908 74.104 7.95547 73.9605C9.00465 72.7831 9.86895 71.4533 10.5188 70.0164C10.3259 69.9759 10.1371 69.9358 9.95216 69.896C9.32817 71.2453 8.50828 72.4951 7.51904 73.6048Z" fill="white"/>
                        <path d="M14.6938 79.9126C14.5521 80.0467 14.4069 80.1766 14.258 80.3021C14.2145 80.3425 14.167 80.3825 14.1217 80.4207C12.2445 82.0033 10.0125 83.1085 7.61588 83.6421C5.21928 84.1756 2.72919 84.1218 0.35791 83.4851C0.37893 83.6852 0.399949 83.8853 0.424949 84.0857C2.85696 84.7024 5.4009 84.7308 7.84606 84.1685C10.2912 83.6062 12.5672 82.4694 14.4855 80.8523C14.546 80.8014 14.6064 80.7504 14.665 80.6973C14.8142 80.5678 14.9595 80.438 15.1029 80.306C17.3076 78.2455 18.8721 75.5936 19.6094 72.6674C19.433 72.5983 19.2566 72.5292 19.0781 72.4619C18.3728 75.3192 16.8491 77.9085 14.6938 79.9126Z" fill="white"/>
                        <path d="M20.1216 85.633C19.9815 85.7733 19.8377 85.9093 19.6921 86.0431C19.5357 86.186 19.3775 86.3268 19.2156 86.4632C16.6907 88.5869 13.5458 89.8355 10.2519 90.0223C6.95793 90.209 3.69211 89.3238 0.943359 87.4991C0.99362 87.7558 1.04205 88.0103 1.09661 88.2633C3.93029 90.0068 7.24132 90.8129 10.5593 90.5673C13.8773 90.3216 17.0335 89.0366 19.5795 86.8948C19.7413 86.7584 19.9013 86.6198 20.0538 86.4765C20.2033 86.343 20.3471 86.207 20.4891 86.0689C23.3391 83.2579 25.0143 79.4688 25.1756 75.4691C24.9957 75.3476 24.8111 75.2337 24.6247 75.1177C24.5481 79.075 22.9329 82.8468 20.1216 85.633Z" fill="white"/>
                        <path d="M68.8727 25.3094V9.59504C68.8727 7.18289 67.9145 4.86954 66.2089 3.1639C64.5032 1.45825 62.1899 0.500017 59.7777 0.5H26.4848C25.2904 0.499992 24.1077 0.735236 23.0043 1.1923C21.9008 1.64936 20.8982 2.31929 20.0536 3.16384C19.209 4.00839 18.5391 5.01102 18.082 6.11448C17.6249 7.21794 17.3897 8.40062 17.3897 9.595V20.0314H16.8047V23.7086H17.3897V27.631H16.8047V33.2695H17.3897V35.721H16.8047V41.3595H17.3897V95.8052C17.3897 96.9995 17.6249 98.1822 18.082 99.2857C18.539 100.389 19.209 101.392 20.0535 102.236C20.8981 103.081 21.9007 103.751 23.0042 104.208C24.1076 104.665 25.2903 104.9 26.4847 104.9H59.7776C60.972 104.9 62.1547 104.665 63.2582 104.208C64.3616 103.751 65.3643 103.081 66.2088 102.236C67.0534 101.392 67.7233 100.389 68.1804 99.2857C68.6375 98.1823 68.8727 96.9996 68.8727 95.8052V36.4951H69.4464V25.3094H68.8727Z" fill="#3F3D56"/>
                        <path d="M60.1448 2.86622H55.7989C55.9988 3.35619 56.0751 3.8878 56.0211 4.4142C55.9671 4.94061 55.7845 5.44565 55.4893 5.88485C55.1941 6.32405 54.7955 6.68393 54.3285 6.93277C53.8615 7.18161 53.3404 7.31179 52.8113 7.31183H33.7382C33.209 7.31179 32.688 7.18161 32.2209 6.93277C31.7539 6.68393 31.3553 6.32405 31.0601 5.88485C30.765 5.44565 30.5823 4.94061 30.5283 4.4142C30.4743 3.88779 30.5506 3.35619 30.7505 2.86621H26.6915C24.8901 2.86621 23.1625 3.5818 21.8888 4.85556C20.615 6.12932 19.8994 7.85691 19.8994 9.65828V95.7419C19.8994 96.6339 20.0751 97.5171 20.4164 98.3411C20.7578 99.1652 21.2581 99.9139 21.8888 100.545C22.5195 101.175 23.2682 101.676 24.0923 102.017C24.9163 102.358 25.7995 102.534 26.6915 102.534H60.1448C61.9461 102.534 63.6737 101.818 64.9475 100.545C66.2212 99.2709 66.9368 97.5433 66.9368 95.7419V9.65828C66.9368 8.76633 66.7611 7.88312 66.4198 7.05906C66.0785 6.23501 65.5782 5.48626 64.9475 4.85556C64.3168 4.22486 63.568 3.72456 62.744 3.38323C61.9199 3.04189 61.0367 2.86621 60.1448 2.86622Z" fill="white"/>
                        <path d="M60.986 32.8241H25.8498C25.605 32.8238 25.3702 32.7264 25.1971 32.5532C25.0239 32.3801 24.9266 32.1454 24.9263 31.9005V17.6438C24.9266 17.3989 25.0239 17.1642 25.1971 16.991C25.3702 16.8179 25.605 16.7205 25.8498 16.7202H60.986C61.2309 16.7205 61.4656 16.8179 61.6388 16.991C61.8119 17.1642 61.9093 17.3989 61.9096 17.6438V31.9005C61.9093 32.1454 61.8119 32.3801 61.6388 32.5532C61.4656 32.7264 61.2309 32.8238 60.986 32.8241Z" fill="#D8AFD6"/>
                        <path d="M57.6406 39.5708H29.1956C28.9261 39.5708 28.6677 39.4638 28.4772 39.2733C28.2867 39.0828 28.1797 38.8244 28.1797 38.555C28.1797 38.2855 28.2867 38.0271 28.4772 37.8366C28.6677 37.6461 28.9261 37.5391 29.1956 37.5391H57.6406C57.91 37.5391 58.1684 37.6461 58.3589 37.8366C58.5494 38.0271 58.6564 38.2855 58.6564 38.555C58.6564 38.8244 58.5494 39.0828 58.3589 39.2733C58.1684 39.4638 57.91 39.5708 57.6406 39.5708Z" fill="#7956D8"/>
                        <path d="M57.6401 44.7429H29.1952C28.9012 44.7429 28.6193 44.6261 28.4115 44.4183C28.2037 44.2104 28.0869 43.9285 28.0869 43.6346C28.0869 43.3407 28.2037 43.0588 28.4115 42.851C28.6193 42.6431 28.9012 42.5264 29.1952 42.5264H57.6401C57.9341 42.5264 58.216 42.6431 58.4238 42.851C58.6316 43.0588 58.7484 43.3407 58.7484 43.6346C58.7484 43.9285 58.6316 44.2104 58.4238 44.4183C58.216 44.6261 57.9341 44.7429 57.6401 44.7429Z" fill="#E4E4E4"/>
                        <path d="M57.6401 49.822H29.1952C28.9012 49.822 28.6193 49.7052 28.4115 49.4974C28.2037 49.2895 28.0869 49.0077 28.0869 48.7137C28.0869 48.4198 28.2037 48.1379 28.4115 47.9301C28.6193 47.7222 28.9012 47.6055 29.1952 47.6055H57.6401C57.9341 47.6055 58.216 47.7222 58.4238 47.9301C58.6316 48.1379 58.7484 48.4198 58.7484 48.7137C58.7484 49.0077 58.6316 49.2895 58.4238 49.4974C58.216 49.7052 57.9341 49.822 57.6401 49.822Z" fill="#E4E4E4"/>
                        <path d="M60.986 75.4915H25.8498C25.605 75.4912 25.3702 75.3939 25.1971 75.2207C25.0239 75.0476 24.9266 74.8128 24.9263 74.568V60.3112C24.9266 60.0664 25.0239 59.8316 25.1971 59.6585C25.3702 59.4854 25.605 59.388 25.8498 59.3877H60.986C61.2309 59.388 61.4656 59.4854 61.6388 59.6585C61.8119 59.8316 61.9093 60.0664 61.9096 60.3112V74.568C61.9093 74.8128 61.8119 75.0476 61.6388 75.2207C61.4656 75.3939 61.2309 75.4913 60.986 75.4915Z" fill="#E4E4E4"/>
                        <path d="M57.6401 82.3307H29.1952C28.9012 82.3307 28.6193 82.214 28.4115 82.0061C28.2037 81.7983 28.0869 81.5164 28.0869 81.2225C28.0869 80.9286 28.2037 80.6467 28.4115 80.4388C28.6193 80.231 28.9012 80.1143 29.1952 80.1143H57.6401C57.9341 80.1143 58.216 80.231 58.4238 80.4388C58.6316 80.6467 58.7484 80.9286 58.7484 81.2225C58.7484 81.5164 58.6316 81.7983 58.4238 82.0061C58.216 82.214 57.9341 82.3307 57.6401 82.3307Z" fill="#E4E4E4"/>
                        <path d="M57.6401 87.4103H29.1952C28.9012 87.4103 28.6193 87.2936 28.4115 87.0857C28.2037 86.8779 28.0869 86.596 28.0869 86.3021C28.0869 86.0082 28.2037 85.7263 28.4115 85.5184C28.6193 85.3106 28.9012 85.1938 29.1952 85.1938H57.6401C57.9341 85.1938 58.216 85.3106 58.4238 85.5184C58.6316 85.7263 58.7484 86.0082 58.7484 86.3021C58.7484 86.596 58.6316 86.8779 58.4238 87.0857C58.216 87.2936 57.9341 87.4103 57.6401 87.4103Z" fill="#E4E4E4"/>
                        <path d="M57.6401 92.4894H29.1952C28.9012 92.4894 28.6193 92.3727 28.4115 92.1648C28.2037 91.957 28.0869 91.6751 28.0869 91.3812C28.0869 91.0873 28.2037 90.8054 28.4115 90.5975C28.6193 90.3897 28.9012 90.2729 29.1952 90.2729H57.6401C57.9341 90.2729 58.216 90.3897 58.4238 90.5975C58.6316 90.8054 58.7484 91.0873 58.7484 91.3812C58.7484 91.6751 58.6316 91.957 58.4238 92.1648C58.216 92.3727 57.9341 92.4894 57.6401 92.4894Z" fill="#E4E4E4"/>
                        <path d="M44.6646 4.47662H39.6775C39.5795 4.47662 39.4856 4.4377 39.4163 4.36842C39.347 4.29914 39.3081 4.20518 39.3081 4.10721C39.3081 4.00923 39.347 3.91527 39.4163 3.84599C39.4856 3.77671 39.5795 3.73779 39.6775 3.73779H44.6646C44.7626 3.73779 44.8566 3.77671 44.9258 3.84599C44.9951 3.91527 45.034 4.00923 45.034 4.10721C45.034 4.20518 44.9951 4.29914 44.9258 4.36842C44.8566 4.4377 44.7626 4.47662 44.6646 4.47662Z" fill="white"/>
                        <path d="M47.158 4.47662C47.362 4.47662 47.5274 4.31123 47.5274 4.10721C47.5274 3.90319 47.362 3.73779 47.158 3.73779C46.954 3.73779 46.7886 3.90319 46.7886 4.10721C46.7886 4.31123 46.954 4.47662 47.158 4.47662Z" fill="white"/>
                    </svg>