<svg xmlns="http://www.w3.org/2000/svg" width="20" height="13" viewBox="0 0 20 13" fill="none">
  <path fill-rule="evenodd" clip-rule="evenodd" d="M9.99999 10.9732C8.94082 11.8872 7.56689 12.439 6.06557 12.439C2.71565 12.439 0 9.69179 0 6.30298C0 2.91417 2.71565 0.166992 6.06557 0.166992C7.5669 0.166992 8.94083 0.718773 10 1.6328C11.0592 0.71878 12.4331 0.167005 13.9344 0.167005C17.2843 0.167005 20 2.91418 20 6.30299C20 9.6918 17.2843 12.439 13.9344 12.439C12.4331 12.439 11.0592 11.8872 9.99999 10.9732Z" fill="#ED0006"/>
  <path fill-rule="evenodd" clip-rule="evenodd" d="M10 10.9732C11.3042 9.84771 12.1312 8.17304 12.1312 6.30298C12.1312 4.43292 11.3042 2.75825 10 1.63279C11.0592 0.718769 12.4331 0.166992 13.9344 0.166992C17.2843 0.166992 20 2.91417 20 6.30298C20 9.69179 17.2843 12.439 13.9344 12.439C12.4331 12.439 11.0592 11.8872 10 10.9732Z" fill="#F9A000"/>
  <path fill-rule="evenodd" clip-rule="evenodd" d="M10 10.9731C11.3042 9.84768 12.1311 8.17302 12.1311 6.30297C12.1311 4.43293 11.3042 2.75827 10 1.63281C8.69586 2.75827 7.8689 4.43293 7.8689 6.30297C7.8689 8.17302 8.69586 9.84768 10 10.9731Z" fill="#FF5E00"/>
</svg>