<svg xmlns="http://www.w3.org/2000/svg" width="92" height="100" viewBox="0 0 92 100" fill="none">
  <path d="M38.3278 14.7607C37.3632 9.598 38.8818 3.72458 43.1029 0.599609C42.8637 6.306 44.6506 11.9131 48.1475 16.4288C49.5024 18.1655 51.1903 19.9559 51.1379 22.158C51.1053 23.5282 50.3642 24.8046 49.3877 25.7662C48.4112 26.7279 47.2082 27.4212 46.0197 28.1037L45.8347 28.3915C42.3505 24.4616 39.2924 19.9233 38.3278 14.7607Z" fill="#F0F0F0"/>
  <path d="M43.1795 0.678587C41.4061 4.64758 40.9283 9.07446 41.8141 13.3304C41.9885 14.25 42.3068 15.1364 42.7572 15.9569C43.2218 16.742 43.8882 17.3883 44.6871 17.8288C45.4237 18.2544 46.2265 18.6045 46.8468 19.2018C47.1598 19.5122 47.4037 19.8853 47.5624 20.2966C47.721 20.7079 47.791 21.1481 47.7676 21.5884C47.7379 22.6868 47.3153 23.7091 46.8673 24.6944C46.3698 25.7884 45.8358 26.9168 45.8681 28.1468C45.872 28.2958 45.6405 28.2932 45.6366 28.1444C45.5805 26.0044 47.1276 24.2858 47.4723 22.2325C47.6332 21.2744 47.5062 20.2619 46.8326 19.5193C46.2436 18.8698 45.4161 18.5081 44.6665 18.0836C43.8808 17.6653 43.2096 17.0611 42.7113 16.3236C42.2205 15.5287 41.8686 14.6561 41.6707 13.7431C41.1921 11.6948 41.0387 9.58403 41.2158 7.48808C41.4048 5.09486 42.0017 2.75159 42.9809 0.559667C43.0415 0.424025 43.2397 0.543829 43.1795 0.678584L43.1795 0.678587Z" fill="white"/>
  <path d="M41.4484 11.9766C40.7141 12.0283 39.9854 11.8173 39.3924 11.3813C38.7994 10.9453 38.3807 10.3127 38.211 9.59648C38.1772 9.45145 38.401 9.39206 38.4348 9.53729C38.5916 10.2045 38.9817 10.7938 39.5348 11.1986C40.0878 11.6035 40.7674 11.7973 41.4508 11.7452C41.5993 11.734 41.5961 11.9655 41.4484 11.9766Z" fill="white"/>
  <path d="M44.2852 17.6623C45.2819 16.5352 45.8172 15.0738 45.7843 13.5695C45.7809 13.4205 46.0124 13.4231 46.0158 13.5719C46.0471 15.1374 45.4869 16.657 44.4471 17.8277C44.3479 17.9392 44.1865 17.7732 44.2852 17.6623Z" fill="white"/>
  <path d="M41.676 5.23866C41.9643 5.27786 42.2578 5.24485 42.5301 5.1426C42.8025 5.04035 43.0452 4.87205 43.2364 4.65283C43.3341 4.5401 43.4954 4.70623 43.3983 4.81821C43.1859 5.05944 42.9177 5.24497 42.617 5.35861C42.3164 5.47225 41.9925 5.51054 41.6736 5.47012C41.6432 5.46883 41.6145 5.45602 41.5932 5.4343C41.5719 5.41258 41.5597 5.38357 41.5591 5.35318C41.5596 5.32253 41.5721 5.29331 41.594 5.27187C41.6159 5.25042 41.6454 5.23849 41.676 5.23866Z" fill="white"/>
  <path d="M60.3648 4.86983C60.3058 4.94194 60.2468 5.01406 60.1883 5.08807C59.3998 6.06172 58.6918 7.09781 58.0711 8.18613C58.0218 8.26951 57.9731 8.35475 57.9263 8.43938C56.4589 11.0773 55.4941 13.9647 55.0808 16.9549C54.9175 18.1449 54.8449 19.3456 54.8637 20.5466C54.8898 22.2052 55.0501 24.0016 54.5416 25.5271C54.4904 25.6868 54.4293 25.8432 54.3587 25.9954L46.2001 28.5948C46.1786 28.5914 46.1576 28.5899 46.136 28.5865L45.815 28.7052C45.8097 28.6433 45.8055 28.5791 45.8002 28.5172C45.797 28.4813 45.7956 28.4448 45.7924 28.409C45.7908 28.3849 45.7893 28.3607 45.7865 28.3391C45.7859 28.3311 45.7855 28.323 45.7855 28.3168C45.7827 28.2952 45.7824 28.2748 45.7802 28.255C45.756 27.8957 45.7335 27.5358 45.7149 27.1747C45.7143 27.1729 45.7143 27.1729 45.7155 27.1704C45.5755 24.4204 45.6638 21.6345 46.1721 18.9506C46.1875 18.8698 46.2021 18.7872 46.2211 18.7053C46.457 17.4968 46.7912 16.3096 47.2205 15.1555C47.4576 14.5244 47.7265 13.9056 48.0262 13.3016C48.8034 11.7425 49.8211 10.3153 51.0419 9.07248C53.4758 6.5952 56.6749 4.92391 60.1029 4.87129C60.1906 4.86999 60.2765 4.86925 60.3648 4.86983Z" fill="#F0F0F0"/>
  <path d="M60.3793 4.9795C56.5737 7.08079 53.527 10.3278 51.6718 14.2592C51.2574 15.0985 50.9779 15.9978 50.8436 16.9241C50.7418 17.8307 50.8848 18.748 51.2574 19.5806C51.5893 20.364 52.0196 21.1268 52.1552 21.9772C52.2182 22.4135 52.1883 22.8583 52.0673 23.2822C51.9464 23.7061 51.7372 24.0997 51.4535 24.4371C50.7685 25.2963 49.8156 25.8581 48.8646 26.375C47.8088 26.9491 46.703 27.5285 45.9882 28.53C45.9016 28.6514 45.7184 28.5099 45.8049 28.3887C47.0484 26.6463 49.3184 26.2056 50.8299 24.7736C51.5352 24.1055 52.0434 23.2207 51.9527 22.2222C51.8734 21.349 51.4305 20.5619 51.0876 19.7717C50.7121 18.9647 50.5399 18.0781 50.5861 17.1893C50.6729 16.2591 50.9173 15.3505 51.3089 14.5024C52.16 12.5788 53.3083 10.8011 54.7117 9.23425C56.3034 7.43715 58.1908 5.92559 60.2923 4.76496C60.4224 4.69317 60.5086 4.90818 60.3793 4.9795Z" fill="white"/>
  <path d="M52.1946 12.9579C51.5773 12.5571 51.1225 11.9499 50.9115 11.2447C50.7005 10.5396 50.747 9.78239 51.0428 9.10837C51.1031 8.9722 51.3175 9.05951 51.2571 9.19587C50.9806 9.82301 50.9373 10.5283 51.1351 11.1846C51.3329 11.8408 51.7588 12.4047 52.3359 12.7745C52.4612 12.8551 52.3192 13.0379 52.1946 12.9579Z" fill="white"/>
  <path d="M51.0366 19.2055C52.5111 18.9056 53.8183 18.061 54.6977 16.8402C54.7848 16.7191 54.968 16.8606 54.8811 16.9814C53.9636 18.2502 52.6014 19.1264 51.0663 19.435C50.92 19.4643 50.8911 19.2346 51.0366 19.2055V19.2055Z" fill="white"/>
  <path d="M56.4334 7.71525C56.64 7.9201 56.8942 8.07044 57.1732 8.15277C57.4522 8.23511 57.7473 8.24685 58.032 8.18694C58.1779 8.15578 58.2067 8.38554 58.0618 8.41649C57.7469 8.48121 57.421 8.46785 57.1126 8.37757C56.8041 8.28729 56.5224 8.12284 56.2922 7.89859C56.2687 7.87927 56.2534 7.85174 56.2495 7.82159C56.2456 7.79144 56.2533 7.76093 56.2711 7.73627C56.29 7.71208 56.3176 7.69631 56.348 7.69237C56.3784 7.68843 56.4091 7.69665 56.4334 7.71523V7.71525Z" fill="white"/>
  <path d="M8.79125 92.0649C13.6465 92.0649 17.5825 88.1289 17.5825 83.2737C17.5825 78.4184 13.6465 74.4824 8.79125 74.4824C3.93598 74.4824 0 78.4184 0 83.2737C0 88.1289 3.93598 92.0649 8.79125 92.0649Z" fill="#F0F0F0"/>
  <path d="M86.4774 52.7671L22.7685 82.0171C21.8617 82.4322 20.8272 82.4706 19.892 82.124C18.9569 81.7773 18.1974 81.0739 17.7803 80.168L2.05849 45.9246C1.6434 45.0178 1.60496 43.9833 1.95161 43.0482C2.29826 42.113 3.0017 41.3536 3.90759 40.9364L67.6164 11.6864C68.5233 11.2713 69.5577 11.2329 70.4929 11.5795C71.428 11.9262 72.1875 12.6296 72.6047 13.5355L88.3265 47.7789C88.7416 48.6857 88.78 49.7202 88.4334 50.6553C88.0867 51.5905 87.3833 52.3499 86.4774 52.7671Z" fill="white"/>
  <path d="M4.96708 43.2443C4.67279 43.3798 4.44427 43.6265 4.33165 43.9303C4.21904 44.2341 4.23153 44.5702 4.36638 44.8648L20.0882 79.1081C20.2237 79.4024 20.4704 79.6309 20.7742 79.7436C21.078 79.8562 21.4141 79.8437 21.7087 79.7088L85.4175 50.4589C85.7118 50.3233 85.9403 50.0766 86.0529 49.7728C86.1656 49.469 86.1531 49.133 86.0182 48.8384L70.2964 14.595C70.1609 14.3007 69.9142 14.0722 69.6104 13.9596C69.3066 13.847 68.9705 13.8595 68.6759 13.9943L4.96708 43.2443Z" fill="#E4E4E4"/>
  <path d="M86.4774 52.7671L22.7685 82.0171C21.8617 82.4322 20.8272 82.4706 19.892 82.124C18.9569 81.7773 18.1974 81.0739 17.7803 80.168L2.05849 45.9246C1.6434 45.0178 1.60496 43.9833 1.95161 43.0482C2.29826 42.113 3.0017 41.3536 3.90759 40.9364L67.6164 11.6864C68.5233 11.2713 69.5577 11.2329 70.4929 11.5795C71.428 11.9262 72.1875 12.6296 72.6047 13.5355L88.3265 47.7789C88.7416 48.6857 88.78 49.7202 88.4334 50.6553C88.0867 51.5905 87.3833 52.3499 86.4774 52.7671ZM4.0706 41.2915C3.25879 41.6653 2.62842 42.3459 2.31777 43.1839C2.00713 44.0219 2.04158 44.949 2.41358 45.7616L18.1354 80.005C18.5092 80.8168 19.1898 81.4471 20.0278 81.7578C20.8658 82.0684 21.7928 82.034 22.6055 81.662L86.3143 52.412C87.1261 52.0382 87.7565 51.3576 88.0672 50.5196C88.3778 49.6816 88.3434 48.7545 87.9714 47.9419L72.2496 13.6985C71.8757 12.8867 71.1952 12.2564 70.3572 11.9457C69.5191 11.6351 68.5921 11.6695 67.7795 12.0415L4.0706 41.2915Z" fill="#CACACA"/>
  <path d="M70.5575 37.2278L19.9447 60.4652C19.537 60.6516 19.0818 60.7077 18.6411 60.6258C18.2003 60.5439 17.7956 60.328 17.4822 60.0075L2.6739 44.8216C2.43104 44.5725 2.25152 44.2688 2.15042 43.9359C2.04933 43.6031 2.02963 43.2508 2.09296 42.9087C2.1563 42.5667 2.30083 42.2448 2.51439 41.9702C2.72796 41.6956 3.00433 41.4763 3.32027 41.3307L68.1837 11.4299C68.4955 11.2862 68.8369 11.2185 69.1799 11.2322C69.523 11.2459 69.8579 11.3407 70.1572 11.5088C70.4566 11.6769 70.7118 11.9136 70.9021 12.1994C71.0924 12.4851 71.2122 12.8119 71.2519 13.1529L71.2606 13.1527L71.8232 35.1976C71.8344 35.6228 71.7204 36.0419 71.4954 36.4028C71.2703 36.7638 70.9442 37.0506 70.5575 37.2278ZM68.3495 11.7837L3.48377 41.6856C3.22464 41.805 2.99797 41.9849 2.8228 42.2101C2.64763 42.4353 2.52909 42.6993 2.47714 42.9798C2.4252 43.2604 2.44136 43.5493 2.52427 43.8223C2.60718 44.0953 2.75442 44.3444 2.95361 44.5487L17.7619 59.7347C18.019 59.9975 18.3509 60.1747 18.7124 60.2418C19.0739 60.309 19.4473 60.263 19.7817 60.1101L70.3945 36.8727C70.7117 36.7274 70.9791 36.4921 71.1637 36.1961C71.3483 35.9 71.4418 35.5562 71.4326 35.2075L70.8749 13.358L70.953 13.3561L70.8749 13.358C70.8674 13.0632 70.7868 12.7748 70.6404 12.5188C70.494 12.2627 70.2863 12.047 70.036 11.891C69.7857 11.735 69.5006 11.6435 69.2063 11.6248C68.9119 11.606 68.6175 11.6606 68.3495 11.7837Z" fill="#CACACA"/>
  <path d="M38.8192 68.6639L23.0504 75.9037C22.9359 75.9563 22.8122 75.986 22.6864 75.9908C22.5605 75.9956 22.4349 75.9756 22.3168 75.9319C22.1986 75.8882 22.0903 75.8216 21.9979 75.736C21.9055 75.6503 21.8309 75.5473 21.7783 75.4329C21.7258 75.3184 21.6963 75.1947 21.6916 75.0688C21.6869 74.9429 21.707 74.8173 21.7508 74.6993C21.7947 74.5812 21.8614 74.4729 21.9471 74.3806C22.0328 74.2883 22.1359 74.2138 22.2504 74.1613L38.0193 66.9215C38.2503 66.8157 38.5138 66.806 38.752 66.8944C38.9902 66.9828 39.1836 67.1622 39.2896 67.3931C39.3956 67.624 39.4056 67.8876 39.3174 68.1258C39.2292 68.3641 39.05 68.5576 38.8192 68.6639Z" fill="white"/>
  <path d="M50.3553 46.2886C50.626 46.8767 50.7781 47.5124 50.803 48.1593C50.8278 48.8063 50.725 49.4518 50.5002 50.059C50.2755 50.6661 49.9333 51.223 49.4932 51.6979C49.0531 52.1727 48.5237 52.5562 47.9353 52.8263C47.347 53.0964 46.7111 53.248 46.0641 53.2722C45.4172 53.2965 44.7718 53.193 44.1648 52.9677C43.5578 52.7423 43.0013 52.3996 42.5268 51.9591C42.0524 51.5185 41.6695 50.9888 41.3999 50.4001" fill="#CACACA"/>
  <path d="M85.9088 99.3436H15.8062C14.8089 99.3425 13.8527 98.9458 13.1475 98.2406C12.4422 97.5354 12.0456 96.5792 12.0444 95.5819V57.9019C12.0456 56.9046 12.4423 55.9484 13.1475 55.2432C13.8527 54.538 14.8089 54.1413 15.8062 54.1401H85.9088C86.9062 54.1413 87.8623 54.538 88.5676 55.2432C89.2728 55.9484 89.6695 56.9046 89.6706 57.9019V95.5819C89.6695 96.5792 89.2728 97.5354 88.5676 98.2406C87.8624 98.9458 86.9062 99.3425 85.9088 99.3436Z" fill="white"/>
  <path d="M15.8065 56.6797C15.4825 56.6801 15.1719 56.8089 14.9428 57.038C14.7137 57.2671 14.5848 57.5777 14.5845 57.9017V95.5817C14.5848 95.9057 14.7137 96.2164 14.9428 96.4454C15.1719 96.6745 15.4825 96.8034 15.8065 96.8038H85.9092C86.2332 96.8034 86.5438 96.6745 86.7729 96.4454C87.002 96.2164 87.1309 95.9057 87.1313 95.5817V57.9017C87.1309 57.5777 87.002 57.2671 86.7729 57.038C86.5438 56.8089 86.2332 56.6801 85.9092 56.6797H15.8065Z" fill="#D8AFD6"/>
  <path d="M85.9088 99.3436H15.8062C14.8089 99.3425 13.8527 98.9458 13.1475 98.2406C12.4422 97.5354 12.0456 96.5792 12.0444 95.5819V57.9019C12.0456 56.9046 12.4423 55.9484 13.1475 55.2432C13.8527 54.538 14.8089 54.1413 15.8062 54.1401H85.9088C86.9062 54.1413 87.8623 54.538 88.5676 55.2432C89.2728 55.9484 89.6695 56.9046 89.6706 57.9019V95.5819C89.6695 96.5792 89.2728 97.5354 88.5676 98.2406C87.8624 98.9458 86.9062 99.3425 85.9088 99.3436ZM15.8062 54.5309C14.9124 54.5319 14.0556 54.8874 13.4236 55.5193C12.7917 56.1513 12.4362 57.0081 12.4352 57.9019V95.5819C12.4362 96.4756 12.7917 97.3325 13.4236 97.9644C14.0556 98.5964 14.9124 98.9519 15.8062 98.9529H85.9088C86.8026 98.9519 87.6594 98.5964 88.2914 97.9644C88.9234 97.3325 89.2789 96.4756 89.2799 95.5819V57.9019C89.2789 57.0081 88.9234 56.1513 88.2914 55.5193C87.6594 54.8874 86.8026 54.5319 85.9088 54.5309H15.8062Z" fill="#3F3D56"/>
  <path d="M77.9253 78.5795H22.233C21.7847 78.5789 21.3476 78.4399 20.9812 78.1816C20.6149 77.9232 20.3372 77.5582 20.186 77.1362L13.0646 57.1566C12.9478 56.8289 12.9114 56.478 12.9584 56.1333C13.0054 55.7886 13.1345 55.4603 13.3348 55.1758C13.5351 54.8914 13.8007 54.6592 14.1094 54.4988C14.418 54.3383 14.7607 54.2543 15.1086 54.2538L86.532 54.144C86.8754 54.1436 87.2139 54.2245 87.5199 54.3801C87.8259 54.5357 88.0908 54.7616 88.2927 55.0393C88.4946 55.3169 88.6278 55.6385 88.6815 55.9776C88.7351 56.3167 88.7077 56.6637 88.6014 56.9901L88.6095 56.9936L79.9227 77.2625C79.7554 77.6536 79.477 77.9869 79.1219 78.2211C78.7667 78.4552 78.3507 78.5798 77.9253 78.5795ZM86.5351 54.5348L15.1091 54.6445C14.8238 54.6449 14.5427 54.7138 14.2896 54.8454C14.0364 54.977 13.8185 55.1675 13.6543 55.4007C13.49 55.634 13.3841 55.9033 13.3456 56.186C13.307 56.4687 13.3369 56.7566 13.4327 57.0253L20.5541 77.0049C20.678 77.351 20.9058 77.6505 21.2063 77.8624C21.5067 78.0743 21.8653 78.1883 22.233 78.1888H77.9253C78.2742 78.1891 78.6155 78.0868 78.9067 77.8948C79.198 77.7027 79.4264 77.4293 79.5636 77.1086L88.1733 57.0192L88.2451 57.05L88.1733 57.0192C88.2895 56.7481 88.3366 56.4524 88.3103 56.1587C88.2841 55.8649 88.1854 55.5822 88.023 55.336C87.8607 55.0898 87.6397 54.8877 87.3801 54.7478C87.1204 54.608 86.83 54.5348 86.5351 54.5348Z" fill="#3F3D56"/>
  <path d="M35.9648 93.9055H18.6134C18.3592 93.9055 18.1153 93.8045 17.9356 93.6247C17.7558 93.4449 17.6548 93.2011 17.6548 92.9469C17.6548 92.6926 17.7558 92.4488 17.9356 92.269C18.1153 92.0893 18.3592 91.9883 18.6134 91.9883H35.9648C36.2191 91.9883 36.4629 92.0893 36.6427 92.269C36.8225 92.4488 36.9235 92.6926 36.9235 92.9469C36.9235 93.2011 36.8225 93.4449 36.6427 93.6247C36.4629 93.8045 36.2191 93.9055 35.9648 93.9055Z" fill="white"/>
  <path d="M55.7848 78.3843C55.7848 79.691 55.2657 80.9442 54.3417 81.8682C53.4177 82.7922 52.1644 83.3113 50.8577 83.3113C49.551 83.3113 48.2978 82.7922 47.3738 81.8682C46.4498 80.9442 45.9307 79.691 45.9307 78.3843" fill="#3F3D56"/>
  <path d="M24.6157 21.7348C25.5867 21.7348 26.3739 20.9476 26.3739 19.9765C26.3739 19.0055 25.5867 18.2183 24.6157 18.2183C23.6446 18.2183 22.8574 19.0055 22.8574 19.9765C22.8574 20.9476 23.6446 21.7348 24.6157 21.7348Z" fill="#F0F0F0"/>
  <path d="M1.75825 63.933C2.7293 63.933 3.5165 63.1458 3.5165 62.1748C3.5165 61.2037 2.7293 60.4165 1.75825 60.4165C0.787195 60.4165 0 61.2037 0 62.1748C0 63.1458 0.787195 63.933 1.75825 63.933Z" fill="#F0F0F0"/>
  <path d="M89.6709 30.9169C90.6419 30.9169 91.4291 30.1297 91.4291 29.1586C91.4291 28.1876 90.6419 27.4004 89.6709 27.4004C88.6998 27.4004 87.9126 28.1876 87.9126 29.1586C87.9126 30.1297 88.6998 30.9169 89.6709 30.9169Z" fill="#F0F0F0"/>
                </svg>