<svg xmlns="http://www.w3.org/2000/svg" width="80" height="80" viewBox="0 0 80 80" fill="none">
                <g clip-path="url(#clip0_1_1146)">
                  <path fill-rule="evenodd" clip-rule="evenodd" d="M24.1581 13.5132C20.2833 13.5253 17.3224 10.5766 17.2981 6.70182C17.2615 3.03418 20.2955 0.0245179 24.0363 0.000148138C27.9111 -0.0242216 30.9329 2.96107 30.9085 6.78711C30.8598 10.4791 27.838 13.5132 24.1581 13.5132ZM55.9241 13.4157C52.3173 13.4644 49.2955 10.5035 49.2224 6.87241C49.1615 3.15603 52.1833 0.0854435 55.9119 0.0976284C59.5308 0.109813 62.5161 3.11947 62.5161 6.73838C62.5161 10.3451 59.5308 13.3669 55.9241 13.4157ZM68.3404 61.9602C72.7026 57.0253 76.0534 50.945 76.8698 44.3774C74.7374 48.8127 70.1316 54.1253 67.0244 56.806C58.2391 64.519 52.7316 67.1631 43.727 71.0013C43.7148 71.0135 43.7148 71.0135 43.7026 71.0135C43.6549 71.0421 43.5997 71.0633 43.5488 71.0828C43.5347 71.0882 43.5209 71.0935 43.5077 71.0988C43.5016 71.1049 43.4924 71.1079 43.4833 71.111C43.4742 71.114 43.465 71.1171 43.4589 71.1232C43.4285 71.1354 43.401 71.1476 43.3736 71.1597C43.3462 71.1719 43.3188 71.1841 43.2883 71.1963C42.0211 71.7446 40.9245 71.8786 39.9984 71.8055C39.182 71.7446 38.4997 71.5253 37.9636 71.2938C37.7077 71.1841 37.4518 71.0501 37.2081 70.9039C37.1715 70.8917 37.1472 70.8795 37.135 70.8673L37.1228 70.8551C27.3506 65.0429 19.8447 58.5728 16.2867 47.1312C15.5922 44.8892 15.251 40.7341 15.7628 38.4312C16.1649 36.6644 16.6888 35.0438 17.4077 33.6182C18.748 30.9619 20.8073 28.9514 24.085 27.9522C24.2312 27.9035 24.3896 27.8547 24.5358 27.8182C25.7178 27.4892 26.8022 27.3064 27.8501 27.2577C31.4011 27.0779 34.4236 28.3904 38.8578 30.316C39.2316 30.4784 39.6155 30.6451 40.0106 30.8157C40.0537 30.8345 40.097 30.8535 40.1407 30.8726C40.492 31.0265 40.8606 31.1879 41.2291 31.3396C46.6635 33.6547 53.7308 35.4703 59.677 34.3615C60.6883 34.1787 61.6753 33.935 62.6135 33.6304C66.269 32.485 69.3883 30.4745 72.0202 27.5379C72.2639 27.2699 72.3614 26.9043 72.2883 26.5753C72.2517 26.4047 72.1786 26.2341 72.0568 26.0879C70.7164 24.0652 68.9984 22.5543 67.1828 21.4089C67.1767 21.4029 67.1706 21.3998 67.1645 21.3968C67.1584 21.3937 67.1524 21.3907 67.1463 21.3846C64.9043 19.9589 62.5404 19.0816 60.6761 18.4358C60.6152 18.4115 60.5543 18.3993 60.4933 18.3871C58.3001 17.7413 56.0946 17.4854 54.0841 17.461H54.0476C49.0518 17.3879 45.1526 18.6795 45.1526 18.6795C45.5547 18.6673 45.969 18.6673 46.3589 18.6795C59.1652 18.911 65.087 25.0278 65.94 25.9905L65.9765 26.027C65.9826 26.0392 65.9918 26.0483 66.0009 26.0575C66.01 26.0666 66.0192 26.0757 66.0253 26.0879C66.0374 26.1001 66.0374 26.1123 66.0374 26.1123C66.0374 26.1123 65.2211 26.7581 63.3324 27.4039H63.3202L63.174 27.4405C60.6396 27.9888 58.0564 28.0984 55.4976 27.8182C54.3887 27.7085 53.2799 27.5136 52.1833 27.2577C52.1467 27.2516 52.1071 27.2424 52.0675 27.2333C52.0279 27.2242 51.9883 27.215 51.9518 27.2089C49.0731 26.5098 46.3852 24.9866 43.793 23.5176C43.313 23.2456 42.8363 22.9754 42.3623 22.7127C42.1483 22.5957 41.9352 22.4777 41.7222 22.3598C41.1593 22.0482 40.5974 21.7372 40.0228 21.4455C39.3039 21.0556 38.5728 20.69 37.8295 20.3489C37.7004 20.2945 37.3099 20.1189 36.9411 19.9531C36.6485 19.8215 36.3695 19.696 36.2455 19.6421C35.4169 19.2888 34.5518 18.972 33.6745 18.6917C31.2253 17.9241 28.6056 17.4854 25.9858 17.461H25.9493C22.4035 17.4245 18.8577 18.119 15.714 19.6787C14.727 20.1661 13.7766 20.7266 12.8871 21.3724C12.881 21.3785 12.8749 21.3815 12.8689 21.3846C12.8628 21.3876 12.8567 21.3907 12.8506 21.3968C10.8766 22.8224 9.17076 24.577 7.7695 26.5753C4.80858 30.7182 3.11489 35.8358 3.00522 40.856C2.98085 42.0379 3.04178 43.2198 3.18799 44.3896C4.00438 50.945 7.3674 57.0253 11.7174 61.9724C14.1665 64.7627 16.7619 67.2484 19.5279 69.466C24.4506 73.4261 29.8972 76.5333 35.9774 78.9093C36.4892 79.1043 37.001 79.2992 37.5249 79.4942C38.3169 79.7744 39.182 79.9572 40.035 79.9938C40.9123 80.0303 41.7896 79.9085 42.5694 79.5673C42.6859 79.5161 42.8031 79.465 42.9206 79.4137C43.307 79.245 43.6973 79.0747 44.0803 78.8971C49.6488 76.3749 54.8396 73.3774 59.8841 69.9169C60.0146 69.8171 60.1499 69.7222 60.2869 69.626C60.3675 69.5695 60.4487 69.5125 60.5299 69.4539C63.2837 67.2362 65.8912 64.7505 68.3404 61.9602Z" fill="#7956D8"/>
                </g>
                <defs>
                  <clipPath id="clip0_1_1146">
                    <rect width="80" height="80" fill="white"/>
                  </clipPath>
                </defs>
              </svg>