<svg xmlns="http://www.w3.org/2000/svg" width="135" height="41" viewBox="0 0 135 41" fill="none">
                <g clip-path="url(#clip0_4626_2448)">
    <path d="M54.6827 18.7911H59.7606C60.0547 18.7911 60.2936 18.8885 60.4834 19.0772C60.6733 19.2659 60.7713 19.5094 60.7713 19.7955V20.9095C60.7713 21.2017 60.6733 21.4391 60.4834 21.6278C60.2936 21.8166 60.0485 21.914 59.7606 21.914H54.6827V27.6483C54.6827 27.9405 54.5846 28.1779 54.3948 28.3666C54.2049 28.5553 53.9598 28.6527 53.672 28.6527H52.3427C52.0487 28.6527 51.8098 28.5553 51.6199 28.3666C51.43 28.1779 51.332 27.9344 51.332 27.6483V13.2759C51.332 12.9837 51.43 12.7463 51.6199 12.5576C51.8098 12.3689 52.0548 12.2715 52.3427 12.2715H61.9168C62.2108 12.2715 62.4497 12.3689 62.6396 12.5576C62.8295 12.7463 62.9275 12.9898 62.9275 13.2759V14.4021C62.9275 14.6943 62.8295 14.9317 62.6396 15.1204C62.4497 15.3091 62.2047 15.4065 61.9168 15.4065H54.6827V18.7911Z" fill="#7956D8"/>
    <path d="M65.6346 28.3666C65.4447 28.1779 65.3467 27.9344 65.3467 27.6483V13.2759C65.3467 12.9837 65.4447 12.7463 65.6346 12.5576C65.8245 12.3689 66.0695 12.2715 66.3574 12.2715H67.7111C68.0051 12.2715 68.244 12.3689 68.4339 12.5576C68.6238 12.7463 68.7218 12.9898 68.7218 13.2759V25.5177H76.4276C76.7217 25.5177 76.9606 25.6151 77.1505 25.8038C77.3403 25.9925 77.4383 26.236 77.4383 26.5221V27.6483C77.4383 27.9405 77.3403 28.1779 77.1505 28.3666C76.9606 28.5553 76.7155 28.6527 76.4276 28.6527H66.3574C66.0695 28.6527 65.8245 28.5553 65.6346 28.3666Z" fill="#7956D8"/>
    <path d="M83.4843 18.7913L89.6281 18.8157C89.9222 18.8157 90.1611 18.907 90.351 19.0957C90.5347 19.2844 90.6327 19.5218 90.6327 19.814V20.928C90.6327 21.2202 90.5347 21.4576 90.3448 21.6464C90.1549 21.8351 89.9099 21.9325 89.622 21.9325L83.4904 21.9081V25.524H91.1963C91.4903 25.524 91.7292 25.6214 91.9191 25.8102C92.109 25.9989 92.207 26.2424 92.207 26.5285V27.6546C92.207 27.9468 92.109 28.1842 91.9191 28.373C91.7292 28.5617 91.4842 28.6591 91.1963 28.6591H81.1259C80.8319 28.6591 80.593 28.5617 80.4031 28.373C80.2132 28.1842 80.1152 27.9407 80.1152 27.6546V13.2822C80.1152 12.99 80.2071 12.7526 80.4031 12.5639C80.593 12.3752 80.838 12.2778 81.1259 12.2778L91.2146 12.2656C91.5087 12.2656 91.7476 12.363 91.9375 12.5517C92.1274 12.7404 92.2254 12.9839 92.2254 13.2701V14.3962C92.2254 14.6884 92.1274 14.9258 91.9375 15.1145C91.7476 15.3033 91.5025 15.4007 91.2146 15.4007H83.4904V18.7913H83.4843Z" fill="#7956D8"/>
    <path d="M106.939 28.2999L102.914 22.8273L98.89 28.2999C98.7123 28.5312 98.4857 28.6469 98.21 28.6469H97.2116C96.8073 28.6469 96.4827 28.5312 96.2376 28.2999C95.9926 28.0686 95.8701 27.7825 95.8701 27.4476C95.8701 27.1433 95.9681 26.8572 96.1641 26.5832L100.924 20.1306L96.6603 14.3293C96.403 13.9823 96.2744 13.617 96.2744 13.2396C96.2744 12.9535 96.354 12.7222 96.5072 12.5396C96.6603 12.3569 96.8747 12.2656 97.1442 12.2656H98.694C98.9819 12.2656 99.2085 12.3813 99.3739 12.6126L102.914 17.4095L106.455 12.6126C106.626 12.3813 106.853 12.2656 107.135 12.2656H108.115C108.519 12.2656 108.844 12.3813 109.095 12.6187C109.346 12.8561 109.469 13.1422 109.469 13.477C109.469 13.7753 109.371 14.0614 109.175 14.3293L104.911 20.1306L109.671 26.5832C109.867 26.8511 109.965 27.1433 109.965 27.4476C109.965 27.7825 109.842 28.0686 109.597 28.2999C109.352 28.5312 109.028 28.6469 108.623 28.6469H107.625C107.343 28.653 107.116 28.5373 106.939 28.2999Z" fill="#7956D8"/>
    <path d="M124.703 28.2999L120.678 22.8273L116.654 28.2999C116.476 28.5312 116.249 28.6469 115.974 28.6469H114.975C114.571 28.6469 114.246 28.5312 114.001 28.2999C113.756 28.0686 113.634 27.7825 113.634 27.4476C113.634 27.1433 113.732 26.8572 113.928 26.5832L118.687 20.1306L114.424 14.3293C114.167 13.9823 114.038 13.617 114.038 13.2396C114.038 12.9535 114.118 12.7222 114.271 12.5396C114.424 12.3569 114.638 12.2656 114.908 12.2656H116.458C116.746 12.2656 116.972 12.3813 117.138 12.6126L120.678 17.4095L124.219 12.6126C124.39 12.3813 124.617 12.2656 124.899 12.2656H125.879C126.283 12.2656 126.608 12.3813 126.859 12.6187C127.11 12.8561 127.232 13.1422 127.232 13.477C127.232 13.7753 127.134 14.0614 126.938 14.3293L122.675 20.1306L127.434 26.5832C127.63 26.8511 127.729 27.1433 127.729 27.4476C127.729 27.7825 127.606 28.0686 127.361 28.2999C127.116 28.5312 126.791 28.6469 126.387 28.6469H125.389C125.101 28.653 124.874 28.5373 124.703 28.2999Z" fill="#7956D8"/>
    <path d="M131.484 28.3671C131.294 28.1784 131.196 27.9349 131.196 27.6488V13.2642C131.196 12.972 131.294 12.7346 131.484 12.5459C131.674 12.3572 131.919 12.2598 132.207 12.2598H133.316C133.61 12.2598 133.849 12.3572 134.038 12.5459C134.228 12.7346 134.326 12.9781 134.326 13.2642V27.6488C134.326 27.941 134.228 28.1784 134.038 28.3671C133.849 28.5558 133.604 28.6532 133.316 28.6532H132.207C131.913 28.6532 131.674 28.5558 131.484 28.3671Z" fill="#7956D8"/>
    <path d="M17.2925 35.5507C17.2619 35.5324 17.2313 35.5202 17.2129 35.502C17.2435 35.5202 17.268 35.5324 17.2925 35.5507Z" fill="#7956D8"/>
    <path d="M10.6461 6.83012C8.69817 6.83621 7.20968 5.36306 7.19743 3.42726C7.17905 1.59494 8.70429 0.0913504 10.5848 0.0791756C12.5327 0.0670007 14.0518 1.55842 14.0396 3.46987C14.0151 5.31436 12.496 6.83012 10.6461 6.83012Z" fill="#7956D8"/>
    <path d="M26.6156 6.7815C24.8024 6.80585 23.2833 5.3266 23.2465 3.51255C23.2159 1.65589 24.735 0.12186 26.6094 0.127948C28.4287 0.134035 29.9294 1.63763 29.9294 3.44559C29.9294 5.24747 28.4287 6.75715 26.6156 6.7815Z" fill="#7956D8"/>
    <path d="M17.2188 35.502C17.2433 35.5141 17.2678 35.5324 17.2984 35.5507C17.2616 35.5324 17.2371 35.5141 17.2188 35.502Z" fill="#7956D8"/>
    <path d="M37.1449 22.2494C36.7345 25.5305 35.05 28.5681 32.8571 31.0335C31.6259 32.4276 30.3151 33.6694 28.9307 34.7773C28.8204 34.8564 28.7102 34.9295 28.6061 35.0086C26.0701 36.7375 23.4607 38.235 20.6613 39.4951C20.4102 39.6107 20.1529 39.7203 19.9018 39.8299C19.5097 40.0003 19.0687 40.0612 18.6277 40.0429C18.1989 40.0247 17.764 39.9334 17.3658 39.7933C17.1024 39.6959 16.8452 39.5986 16.5879 39.5012C13.5313 38.3141 10.7932 36.7618 8.31852 34.7834C6.92804 33.6755 5.62331 32.4337 4.3921 31.0396C2.20531 28.5681 0.514679 25.5305 0.104273 22.2555C0.0307672 21.6711 0.000139898 21.0806 0.0123908 20.4901C0.06752 17.9821 0.918959 15.4254 2.40745 13.3557C3.11188 12.3573 3.96944 11.4807 4.96176 10.7685C4.96789 10.7624 4.97402 10.7624 4.98014 10.7563C5.4273 10.4337 5.90509 10.1537 6.40125 9.91019C7.98162 9.131 9.76413 8.78401 11.5466 8.80228H11.565C12.882 8.81445 14.199 9.0336 15.4302 9.4171C15.8712 9.55712 16.3061 9.71539 16.7227 9.89192C16.8635 9.9528 17.4026 10.1963 17.519 10.245C17.8926 10.4154 18.2601 10.5981 18.6215 10.7929C19.0197 10.9937 19.4056 11.2129 19.7976 11.426C21.3229 12.266 22.9032 13.2583 24.6184 13.6722C24.6551 13.6783 24.698 13.6905 24.7348 13.6966C25.2861 13.8244 25.8435 13.9218 26.4009 13.9766C27.6872 14.1166 28.9858 14.0618 30.2599 13.7879C30.2844 13.7818 30.3089 13.7757 30.3334 13.7696H30.3396C31.289 13.447 31.6994 13.1243 31.6994 13.1243C31.6994 13.1243 31.6994 13.1183 31.6933 13.1122C31.6872 13.1 31.6749 13.0939 31.6688 13.0817C31.6627 13.0756 31.6565 13.0696 31.6504 13.0635C31.2216 12.5826 28.2446 9.52668 21.8068 9.41102C21.6108 9.40493 21.4025 9.40493 21.2004 9.41102C21.2004 9.41102 23.1605 8.76575 25.672 8.80228C25.6781 8.80228 25.6842 8.80228 25.6903 8.80228C26.701 8.81445 27.8097 8.94229 28.9123 9.26492C28.943 9.27101 28.9736 9.27709 29.0042 9.28927C29.9414 9.6119 31.1297 10.0502 32.2568 10.7624C32.263 10.7685 32.2691 10.7685 32.2752 10.7746C33.1879 11.3468 34.0516 12.1017 34.7254 13.1122C34.7866 13.1852 34.8234 13.2704 34.8418 13.3557C34.8785 13.52 34.8295 13.7027 34.707 13.8366C33.3839 15.3036 31.8158 16.3081 29.9782 16.8803C29.5065 17.0325 29.0103 17.1542 28.5019 17.2455C25.5127 17.7995 21.9599 16.8925 19.228 15.7359C19.0197 15.6506 18.8114 15.5593 18.6154 15.4741C16.0611 14.3784 14.4379 13.5992 12.5022 13.6966C11.9754 13.7209 11.4303 13.8122 10.8361 13.9766C10.7626 13.9948 10.6829 14.0192 10.6094 14.0435C8.96169 14.5427 7.92649 15.5471 7.25269 16.8742C6.89129 17.5864 6.62789 18.3961 6.42575 19.2787C6.16848 20.4293 6.33999 22.5051 6.68915 23.6252C8.47778 29.3412 12.2511 32.5737 17.1637 35.4774C17.1637 35.4774 17.1637 35.4774 17.1698 35.4835C17.1759 35.4895 17.1882 35.4956 17.2066 35.5017C17.3291 35.5748 17.4577 35.6417 17.5863 35.6965C17.8559 35.8122 18.1989 35.9217 18.6093 35.9522C19.0748 35.9887 19.6261 35.9217 20.2632 35.6478C20.2938 35.6356 20.3183 35.6235 20.3489 35.6113C20.3551 35.6052 20.3673 35.6052 20.3734 35.5991C20.4041 35.5869 20.4408 35.5748 20.4714 35.5565C20.4776 35.5565 20.4776 35.5565 20.4837 35.5504C25.0104 33.6329 27.7791 32.3119 32.1956 28.4586C33.7576 27.1193 36.073 24.4652 37.1449 22.2494Z" fill="#7956D8"/>
                </g>
  <defs>
    <clipPath id="clip0_4626_2448">
      <rect width="134.301" height="40.0491" fill="white"/>
    </clipPath>
  </defs>
                </svg>