    
<svg xmlns="http://www.w3.org/2000/svg" width="144" height="93" viewBox="0 0 144 93" fill="none">
  <path fill-rule="evenodd" clip-rule="evenodd" d="M8.83124 92.3449C8.83124 92.3449 -7.19108 72.8961 6.12163 51.8393C17.9335 33.1566 31.705 34.4337 41.8088 42.0153C46.1123 45.2443 58.5197 42.4132 69.0796 23.4029C83.4808 -2.52211 133.4 13.2015 124.298 53.0877C119.893 72.3898 137.703 73.0913 128.628 92.3856L8.83124 92.3449Z" fill="#EBF3FA"/>
  <path fill-rule="evenodd" clip-rule="evenodd" d="M139.362 66.5288C138.144 61.8191 130.552 63.291 130.552 63.291C130.552 63.291 125.397 71.5331 123.898 71.7289C122.398 71.9254 126.991 63.7814 126.991 63.7814C124.085 63.4874 116.681 67.2157 116.681 67.2157C116.681 67.2157 117.149 76.8309 115.65 76.635C114.15 76.4386 115.65 68.0989 115.65 68.0989C112.838 68.9816 110.214 72.4158 110.214 72.4158C106.934 78.0087 113.963 82.1292 113.963 82.1292C113.963 82.1292 114.057 85.4652 112.088 89.2917V89.2923C112.088 89.2923 111.644 89.9983 111.193 91.1993H111.959C112.022 90.9843 112.091 90.776 112.168 90.5762C112.168 90.5751 112.168 90.5739 112.169 90.5728C112.17 90.57 112.171 90.5672 112.172 90.5644C112.225 90.4402 112.3 90.2635 112.394 90.0491C112.395 90.0485 112.395 90.0485 112.395 90.048C112.395 90.0474 112.395 90.0474 112.395 90.0468C112.629 89.5671 112.788 89.2127 112.887 88.9565C112.888 88.9559 112.888 88.9548 112.888 88.9542C113.59 87.4473 114.601 85.4844 115.275 85.073C115.275 85.073 115.19 84.9477 115.111 84.705C115.163 84.8224 115.218 84.9443 115.275 85.073C116.587 88.0162 123.148 88.5072 126.803 87.7222C130.458 86.9371 128.865 85.858 126.897 84.1062C124.929 82.3544 120.805 82.8161 119.586 82.1292C118.368 81.4424 120.149 80.7555 122.586 80.9519C125.022 81.1483 126.241 83.6993 130.177 84.0916C134.113 84.4844 137.112 76.7332 137.112 76.7332C134.395 77.6159 129.521 76.0464 129.334 75.065C129.146 74.0841 136.363 74.1817 137.488 73.8877C138.612 73.5931 140.581 71.2385 139.362 66.5288Z" fill="#DFEBFD"/>
  <path fill-rule="evenodd" clip-rule="evenodd" d="M35.9029 67.8134C35.9029 67.8134 36.2377 70.611 35.7369 70.6443C35.2355 70.6776 35.5778 67.4985 35.5778 67.4985C35.5778 67.4985 33.1951 66.1045 32.2259 66.14C32.2259 66.14 33.5905 68.9387 33.097 68.8417C32.6035 68.7446 31.0543 65.9013 31.0543 65.9013C31.0543 65.9013 28.5653 65.2511 28.0696 66.7873C27.5739 68.323 28.1808 69.1459 28.5481 69.2678C28.9154 69.3891 31.3105 69.5104 31.2293 69.8321C31.1481 70.1533 29.5013 70.5698 28.6171 70.2193C28.6171 70.2193 29.4609 72.8538 30.774 72.8075C32.087 72.7612 32.5407 71.9412 33.3527 71.9282C34.1646 71.9147 34.7417 72.1805 34.3244 72.3825C33.907 72.584 32.5483 72.343 31.8615 72.882C31.1747 73.421 30.6253 73.7449 31.8223 74.0836C33.0192 74.4216 35.2042 74.3991 35.697 73.4503C35.7185 73.4091 35.739 73.3696 35.7584 73.3318C35.7277 73.4108 35.697 73.4503 35.697 73.4503C35.9126 73.6016 36.2097 74.2743 36.4129 74.789C36.4415 74.876 36.4868 74.9973 36.5552 75.1621C36.5827 75.236 36.6048 75.297 36.6194 75.3393C36.9811 76.4861 36.6415 78.4044 36.6415 78.4044L36.8959 78.4936C37.5844 76.5826 36.6717 74.9177 36.6717 74.9177C36.0932 73.6067 36.1892 72.5022 36.1892 72.5022C36.1892 72.5022 38.6006 71.2854 37.6216 69.3609C37.6216 69.3609 36.8183 68.1661 35.9029 67.8134Z" fill="#AFCDFB"/>
  <path fill-rule="evenodd" clip-rule="evenodd" d="M17.8696 80.3002C17.6537 76.8497 23.067 76.0116 23.067 76.0116C23.067 76.0116 28.3312 80.2991 29.3798 80.07C30.4283 79.8414 25.5627 75.4844 25.5627 75.4844C27.4464 74.5888 33.2291 75.3089 33.2291 75.3089C33.2291 75.3089 35.0235 81.8692 35.9863 81.3776C36.9486 80.8855 34.114 75.6532 34.114 75.6532C36.1933 75.5697 38.7061 77.2419 38.7061 77.2419C42.1321 80.2032 38.3228 84.6561 38.3228 84.6561C38.3228 84.6561 38.9913 86.9158 41.1504 89.0085C41.1504 89.0085 41.6032 89.3754 42.1693 90.0724L41.6555 90.2564C41.566 90.1271 41.4744 90.0046 41.3795 89.889C41.379 89.8878 41.3784 89.8873 41.3774 89.8867C41.3763 89.885 41.3747 89.8833 41.3736 89.8816C41.311 89.8111 41.2216 89.7112 41.1116 89.5898C41.1116 89.5893 41.111 89.5893 41.111 89.5893C41.111 89.5887 41.1105 89.5887 41.1105 89.5887C40.848 89.3229 40.6641 89.1231 40.5412 88.9758C40.5407 88.9752 40.5401 88.9747 40.5401 88.9741C39.739 88.1326 38.6306 87.0592 38.0883 86.9452C38.0883 86.9452 38.1179 86.8413 38.1174 86.659C38.1082 86.7505 38.0985 86.8458 38.0883 86.9452C37.8538 89.2348 33.5623 91.1407 30.9392 91.4929C28.316 91.8451 29.1477 90.7383 30.0833 89.0904C31.0189 87.443 33.8854 86.7612 34.5518 86.0078C35.2181 85.2543 33.8734 85.2221 32.2825 85.9395C30.6915 86.6568 30.4339 88.6603 27.8805 89.8692C25.327 91.0786 21.6159 86.602 21.6159 86.602C23.6321 86.5411 26.5558 84.3169 26.4663 83.6137C26.3768 82.911 21.5591 84.7114 20.7404 84.7842C19.9217 84.857 18.0855 83.7514 17.8696 80.3002Z" fill="#CDE0FB"/>
  <path fill-rule="evenodd" clip-rule="evenodd" d="M119.252 18.4077C119.252 18.4077 118.675 17.9515 118.526 17.27C118.415 16.7642 118.693 16.1295 118.715 16.1007L117.942 15.9395C117.942 15.9395 117.713 17.0136 118.101 17.7278C118.22 17.9466 118.564 18.2479 118.786 18.3606C119.031 18.4847 119.252 18.4077 119.252 18.4077Z" fill="#6BB7BF"/>
  <path fill-rule="evenodd" clip-rule="evenodd" d="M120.595 17.9151L121.299 18.7577C121.299 18.7577 119.31 19.3105 118.174 17.8379C118.174 17.8379 119.848 18.4305 120.595 17.9151Z" fill="#86D1CD"/>
  <path fill-rule="evenodd" clip-rule="evenodd" d="M84.34 7.3385C84.34 7.3385 85.0575 6.09163 86.3233 6.85455L87.0172 6.06448C87.0172 6.06448 86.2926 5.56224 84.7605 6.65453C83.7577 7.36914 84.34 7.3385 84.34 7.3385Z" fill="#F99746"/>
  <path fill-rule="evenodd" clip-rule="evenodd" d="M83.6313 8.56123C83.6313 8.56123 83.3897 7.202 85.5273 6.19922C85.5273 6.19922 84.7607 6.6545 84.6006 8.03637L83.6313 8.56123Z" fill="#F99746"/>
  <path fill-rule="evenodd" clip-rule="evenodd" d="M40.0678 47.8072C40.0678 47.8072 38.8926 47.3225 39.3541 46.0203L38.5735 45.4893C38.5735 45.4893 38.2532 46.2444 39.4193 47.516C40.1821 48.3484 40.0678 47.8072 40.0678 47.8072Z" fill="#5685D8"/>
  <path fill-rule="evenodd" clip-rule="evenodd" d="M41.2214 48.2877C41.2214 48.2877 40.0947 48.7189 38.9141 46.8662C38.9141 46.8662 39.4197 47.5162 40.6257 47.4575L41.2214 48.2877Z" fill="#739AF0"/>
  <path fill-rule="evenodd" clip-rule="evenodd" d="M43.4551 30.7478C43.4551 30.7478 44.1036 30.3189 44.1721 29.8008C44.1721 29.8008 44.8039 29.8365 44.9403 30.0509C44.9403 30.0509 44.6503 30.9086 44.3085 31.0695C44.3085 31.0695 43.5408 31.123 43.4551 30.7478Z" fill="#F1A34F"/>
  <path fill-rule="evenodd" clip-rule="evenodd" d="M78.4137 21.3545C78.4137 21.3545 77.447 20.7155 77.3451 19.9434C77.3451 19.9434 76.4044 19.9966 76.2012 20.3161C76.2012 20.3161 76.6335 21.5942 77.1419 21.8338C77.1419 21.8338 78.2864 21.9136 78.4137 21.3545Z" fill="#86D1CD"/>
  <path fill-rule="evenodd" clip-rule="evenodd" d="M137.752 18.3831L143.76 38.0755C144.025 38.9443 143.562 39.8827 142.733 40.1602L109.734 51.1937C108.905 51.4713 108.008 50.9871 107.743 50.1185L101.735 30.4261C101.47 29.5573 101.932 28.6189 102.762 28.3415L135.761 17.3078C136.591 17.0303 137.487 17.5143 137.752 18.3831Z" fill="#CDE0FB"/>
  <path fill-rule="evenodd" clip-rule="evenodd" d="M118.773 43.4151L109.979 46.3558C109.607 46.4802 109.205 46.2633 109.086 45.8737L109.059 45.7853C108.94 45.3957 109.147 44.9752 109.519 44.8508L118.314 41.9101C118.686 41.7857 119.088 42.0026 119.207 42.3922L119.234 42.4806C119.352 42.8702 119.145 43.2907 118.773 43.4151Z" fill="#AFCDFB"/>
  <path fill-rule="evenodd" clip-rule="evenodd" d="M130.363 39.5401L121.568 42.4808C121.196 42.6053 120.795 42.3883 120.676 41.9988L120.649 41.9103C120.53 41.5207 120.737 41.1002 121.109 40.9758L129.904 38.0351C130.276 37.9107 130.678 38.1276 130.797 38.5172L130.824 38.6056C130.942 38.9952 130.735 39.4157 130.363 39.5401Z" fill="#AFCDFB"/>
  <path fill-rule="evenodd" clip-rule="evenodd" d="M119.491 33.0204C119.427 32.8099 119.351 32.6407 119.262 32.5127C119.125 32.3215 118.978 32.2524 118.819 32.3057C118.655 32.3603 118.572 32.5054 118.568 32.7408C118.565 32.8999 118.595 33.0858 118.66 33.2984C118.835 33.8712 119.062 34.1109 119.341 34.0175C119.502 33.9636 119.584 33.8167 119.586 33.577C119.588 33.4208 119.557 33.2352 119.491 33.0204ZM119.896 32.8871C119.998 33.2228 120.026 33.5165 119.98 33.7682C119.922 34.086 119.746 34.2939 119.452 34.3922C119.158 34.4904 118.899 34.4276 118.676 34.204C118.499 34.0269 118.36 33.7706 118.257 33.4349C118.155 33.0993 118.126 32.807 118.171 32.5581C118.229 32.2404 118.406 32.0321 118.702 31.9332C118.998 31.8343 119.257 31.8967 119.48 32.1203C119.655 32.296 119.793 32.5515 119.896 32.8871Z" fill="#AFCDFB"/>
  <path fill-rule="evenodd" clip-rule="evenodd" d="M121.298 32.4169C121.234 32.2065 121.158 32.0372 121.068 31.9093C120.932 31.7179 120.785 31.6489 120.625 31.7022C120.462 31.7568 120.379 31.9019 120.375 32.1373C120.372 32.2965 120.402 32.4823 120.467 32.6949C120.642 33.2677 120.869 33.5074 121.148 33.414C121.309 33.3601 121.391 33.2132 121.393 32.9734C121.395 32.8172 121.364 32.6317 121.298 32.4169ZM121.702 32.2836C121.805 32.6193 121.833 32.9129 121.786 33.1648C121.729 33.4824 121.552 33.6904 121.258 33.7886C120.965 33.8868 120.706 33.8241 120.483 33.6005C120.306 33.4234 120.166 33.1671 120.064 32.8314C119.961 32.4958 119.933 32.2035 119.977 31.9546C120.036 31.6369 120.213 31.4286 120.509 31.3297C120.804 31.2308 121.064 31.2931 121.287 31.5167C121.461 31.6924 121.6 31.948 121.702 32.2836Z" fill="#AFCDFB"/>
  <path fill-rule="evenodd" clip-rule="evenodd" d="M124.035 31.5018C123.97 31.2914 123.894 31.1222 123.804 30.9942C123.668 30.8029 123.521 30.7339 123.362 30.7872C123.198 30.8418 123.115 30.9868 123.112 31.2222C123.108 31.3814 123.138 31.5672 123.203 31.7799C123.378 32.3527 123.605 32.5924 123.884 32.499C124.045 32.445 124.127 32.2982 124.129 32.0584C124.132 31.9022 124.1 31.7166 124.035 31.5018ZM124.438 31.3686C124.541 31.7043 124.569 31.9979 124.523 32.2497C124.465 32.5674 124.289 32.7753 123.995 32.8736C123.701 32.9718 123.443 32.9091 123.219 32.6854C123.043 32.5084 122.903 32.2521 122.8 31.9164C122.698 31.5807 122.669 31.2885 122.714 31.0395C122.772 30.7219 122.949 30.5136 123.245 30.4146C123.541 30.3157 123.8 30.3781 124.023 30.6017C124.198 30.7773 124.336 31.0329 124.438 31.3686Z" fill="#AFCDFB"/>
  <path fill-rule="evenodd" clip-rule="evenodd" d="M125.841 30.8983C125.777 30.6879 125.701 30.5187 125.611 30.3907C125.475 30.1994 125.328 30.1304 125.168 30.1836C125.005 30.2383 124.922 30.3834 124.918 30.6188C124.915 30.7779 124.945 30.9637 125.009 31.1764C125.185 31.7492 125.412 31.9889 125.691 31.8955C125.852 31.8415 125.934 31.6946 125.936 31.4549C125.938 31.2987 125.907 31.1132 125.841 30.8983ZM126.245 30.7651C126.347 31.1008 126.376 31.3945 126.329 31.6462C126.271 31.9639 126.095 32.1719 125.801 32.2701C125.508 32.3683 125.249 32.3056 125.026 32.0819C124.849 31.9049 124.709 31.6485 124.607 31.3128C124.504 30.9773 124.476 30.685 124.52 30.436C124.579 30.1183 124.756 29.91 125.051 29.8111C125.347 29.7122 125.607 29.7746 125.83 29.9982C126.004 30.1739 126.143 30.4294 126.245 30.7651Z" fill="#AFCDFB"/>
  <path fill-rule="evenodd" clip-rule="evenodd" d="M127.646 30.2948C127.582 30.0844 127.505 29.9151 127.416 29.7872C127.28 29.5959 127.132 29.5269 126.973 29.5801C126.81 29.6348 126.726 29.7798 126.723 30.0152C126.719 30.1744 126.75 30.3602 126.814 30.5728C126.989 31.1457 127.216 31.3853 127.495 31.2919C127.657 31.238 127.738 31.0911 127.741 30.8513C127.743 30.6952 127.711 30.5096 127.646 30.2948ZM128.05 30.1616C128.152 30.4972 128.18 30.7909 128.134 31.0427C128.076 31.3604 127.9 31.5683 127.606 31.6666C127.312 31.7648 127.054 31.702 126.831 31.4784C126.654 31.3013 126.514 31.045 126.412 30.7093C126.309 30.3737 126.28 30.0815 126.325 29.8325C126.383 29.5149 126.56 29.3065 126.856 29.2076C127.152 29.1087 127.411 29.1711 127.635 29.3947C127.809 29.5703 127.948 29.8259 128.05 30.1616Z" fill="#AFCDFB"/>
  <path fill-rule="evenodd" clip-rule="evenodd" d="M129.453 29.6903C129.388 29.4798 129.312 29.3106 129.222 29.1827C129.087 28.9914 128.939 28.9224 128.78 28.9756C128.616 29.0303 128.533 29.1754 128.53 29.4108C128.526 29.5699 128.556 29.7557 128.621 29.9683C128.796 30.5411 129.023 30.7808 129.302 30.6874C129.463 30.6335 129.545 30.4866 129.548 30.2468C129.55 30.0907 129.518 29.9051 129.453 29.6903ZM129.856 29.5571C129.959 29.8927 129.987 30.1864 129.941 30.4382C129.883 30.7559 129.707 30.9639 129.413 31.0621C129.119 31.1603 128.861 31.0976 128.637 30.8739C128.461 30.6969 128.32 30.4405 128.218 30.1048C128.116 29.7692 128.087 29.477 128.132 29.228C128.19 28.9103 128.367 28.702 128.663 28.6031C128.959 28.5042 129.218 28.5666 129.441 28.7902C129.616 28.9658 129.754 29.2214 129.856 29.5571Z" fill="#AFCDFB"/>
  <path fill-rule="evenodd" clip-rule="evenodd" d="M132.189 28.7753C132.124 28.5648 132.048 28.3956 131.959 28.2676C131.823 28.0763 131.675 28.0073 131.516 28.0606C131.352 28.1152 131.269 28.2603 131.266 28.4957C131.262 28.6548 131.293 28.8407 131.357 29.0533C131.532 29.6261 131.759 29.8658 132.038 29.7724C132.2 29.7184 132.281 29.5716 132.283 29.3318C132.286 29.1756 132.254 28.9901 132.189 28.7753ZM132.593 28.642C132.695 28.9776 132.723 29.2713 132.677 29.5231C132.619 29.8409 132.443 30.0488 132.149 30.147C131.855 30.2452 131.597 30.1825 131.374 29.9589C131.197 29.7818 131.057 29.5255 130.955 29.1897C130.852 28.8542 130.823 28.5619 130.868 28.313C130.926 27.9952 131.103 27.787 131.399 27.6881C131.695 27.5892 131.954 27.6515 132.178 27.8751C132.352 28.0508 132.49 28.3063 132.593 28.642Z" fill="#AFCDFB"/>
  <path fill-rule="evenodd" clip-rule="evenodd" d="M133.994 28.1717C133.929 27.9613 133.853 27.7921 133.763 27.6641C133.628 27.4728 133.48 27.4038 133.321 27.4571C133.157 27.5117 133.074 27.6568 133.071 27.8922C133.067 28.0514 133.097 28.2372 133.162 28.4498C133.337 29.0226 133.564 29.2623 133.843 29.1689C134.004 29.1149 134.086 28.9681 134.088 28.7283C134.091 28.5721 134.059 28.3865 133.994 28.1717ZM134.397 28.0385C134.5 28.3742 134.528 28.6678 134.482 28.9197C134.424 29.2373 134.248 29.4453 133.954 29.5435C133.66 29.6417 133.402 29.579 133.178 29.3554C133.002 29.1783 132.861 28.922 132.759 28.5863C132.657 28.2506 132.628 27.9584 132.673 27.7095C132.731 27.3918 132.908 27.1835 133.204 27.0845C133.5 26.9857 133.759 27.048 133.982 27.2716C134.157 27.4473 134.295 27.7029 134.397 28.0385Z" fill="#AFCDFB"/>
  <path fill-rule="evenodd" clip-rule="evenodd" d="M135.8 27.5682C135.736 27.3578 135.659 27.1886 135.57 27.0606C135.434 26.8693 135.286 26.8003 135.127 26.8535C134.964 26.9082 134.881 27.0533 134.877 27.2887C134.873 27.4478 134.904 27.6336 134.968 27.8463C135.143 28.4191 135.37 28.6588 135.65 28.5654C135.811 28.5114 135.892 28.3646 135.895 28.1248C135.897 27.9686 135.865 27.7831 135.8 27.5682ZM136.204 27.435C136.306 27.7707 136.334 28.0644 136.288 28.3161C136.23 28.6338 136.054 28.8418 135.76 28.94C135.467 29.0382 135.208 28.9755 134.985 28.7518C134.808 28.5748 134.668 28.3184 134.566 27.9828C134.463 27.6471 134.435 27.3549 134.479 27.1059C134.538 26.7882 134.714 26.5799 135.01 26.4811C135.306 26.3821 135.566 26.4445 135.789 26.6681C135.963 26.8438 136.102 27.0993 136.204 27.435Z" fill="#AFCDFB"/>
  <path fill-rule="evenodd" clip-rule="evenodd" d="M137.607 26.9638C137.542 26.7533 137.466 26.5841 137.377 26.4561C137.241 26.2648 137.093 26.1958 136.934 26.2491C136.77 26.3037 136.687 26.4488 136.684 26.6842C136.68 26.8433 136.711 27.0292 136.775 27.2418C136.95 27.8146 137.177 28.0543 137.456 27.9609C137.618 27.907 137.699 27.7601 137.701 27.5203C137.704 27.3641 137.672 27.1786 137.607 26.9638ZM138.011 26.8305C138.113 27.1662 138.141 27.4599 138.095 27.7116C138.037 28.0293 137.861 28.2373 137.567 28.3355C137.273 28.4337 137.015 28.371 136.791 28.1474C136.615 27.9703 136.475 27.714 136.373 27.3783C136.27 27.0427 136.241 26.7504 136.286 26.5015C136.344 26.1838 136.521 25.9754 136.817 25.8766C137.113 25.7776 137.372 25.84 137.595 26.0637C137.77 26.2393 137.909 26.4948 138.011 26.8305Z" fill="#AFCDFB"/>
  <path fill-rule="evenodd" clip-rule="evenodd" d="M113.849 27.9517L105.243 30.8295C104.871 30.9539 104.469 30.737 104.35 30.3474C104.231 29.9579 104.438 29.5374 104.81 29.413L113.417 26.5351C113.789 26.4107 114.191 26.6277 114.31 27.0172C114.428 27.4067 114.221 27.8272 113.849 27.9517Z" fill="#AFCDFB"/>
  <path fill-rule="evenodd" clip-rule="evenodd" d="M134.753 22.6234C134.675 22.3662 134.517 22.1583 134.318 22.0194C134.259 21.979 134.181 22.0009 134.149 22.066L134.122 22.1225C134.096 22.1767 134.112 22.2432 134.16 22.2771C134.304 22.3786 134.418 22.5297 134.475 22.7164C134.532 22.9031 134.523 23.0954 134.462 23.2658C134.441 23.3226 134.465 23.3864 134.516 23.4147L134.569 23.4442C134.631 23.4782 134.707 23.4482 134.733 23.3801C134.819 23.1456 134.832 22.8805 134.753 22.6234Z" fill="#AFCDFB"/>
  <path fill-rule="evenodd" clip-rule="evenodd" d="M135.312 22.4373C135.183 22.0144 134.914 21.6784 134.576 21.4669C134.519 21.4311 134.445 21.4552 134.415 21.5175L134.399 21.5495C134.372 21.6067 134.391 21.6757 134.444 21.7088C134.726 21.8872 134.95 22.1688 135.058 22.5222C135.166 22.8757 135.139 23.241 135.008 23.5575C134.984 23.6164 135.006 23.6848 135.06 23.7147L135.09 23.7314C135.149 23.764 135.223 23.7384 135.25 23.6744C135.408 23.297 135.441 22.8602 135.312 22.4373Z" fill="#AFCDFB"/>
  <path fill-rule="evenodd" clip-rule="evenodd" d="M135.8 22.274C135.627 21.7083 135.263 21.2612 134.806 20.9857C134.749 20.951 134.675 20.9749 134.645 21.0369C134.618 21.0944 134.638 21.1644 134.691 21.1965C135.1 21.4425 135.425 21.8422 135.579 22.3478C135.734 22.8533 135.689 23.3764 135.493 23.8247C135.467 23.8833 135.489 23.9525 135.544 23.9826C135.603 24.015 135.676 23.9897 135.703 23.9266C135.923 23.4247 135.972 22.8397 135.8 22.274Z" fill="#AFCDFB"/>
  <path fill-rule="evenodd" clip-rule="evenodd" d="M136.33 22.0966C136.11 21.3761 135.643 20.8091 135.058 20.4658C135 20.4319 134.927 20.4552 134.897 20.5172L134.87 20.5725C134.842 20.6304 134.862 20.7009 134.917 20.7326C135.439 21.0402 135.856 21.5463 136.052 22.1896C136.248 22.8329 136.189 23.4982 135.934 24.0659C135.907 24.1245 135.929 24.1944 135.984 24.2246L136.037 24.2535C136.095 24.2859 136.168 24.2604 136.196 24.1977C136.483 23.5627 136.55 22.817 136.33 22.0966Z" fill="#AFCDFB"/>
  <path fill-rule="evenodd" clip-rule="evenodd" d="M45.7012 92.1333V35.4824H114.122V92.1333H45.7012Z" fill="#7956D8"/>
  <path fill-rule="evenodd" clip-rule="evenodd" d="M45.7012 67.1606V63.1953H114.122V67.1606H45.7012Z" fill="#FFA412"/>
  <path fill-rule="evenodd" clip-rule="evenodd" d="M79.9232 36.0892C79.9232 36.0892 91.1366 28.4612 98.759 30.9122L97.1864 32.4497L97.8953 35.0334C97.8953 35.0334 89.419 32.1436 79.6914 36.5238L79.9232 36.0892Z" fill="#F99746"/>
  <path fill-rule="evenodd" clip-rule="evenodd" d="M79.2956 34.3612C79.2956 34.3612 77.3171 34.1109 74.3682 33.6863C66.5398 32.559 51.8768 30.2005 49.2449 28.0182C45.1094 24.5898 54.9087 10.0292 59.1509 8.00815C63.3926 5.98899 79.2956 34.3612 79.2956 34.3612Z" fill="#F99746"/>
  <path fill-rule="evenodd" clip-rule="evenodd" d="M110.319 16.2301C111.026 19.8373 79.0039 35.421 79.0039 35.421C79.0039 35.421 79.5867 33.7721 80.5339 31.1894C80.5339 31.1894 80.5355 31.1873 80.5366 31.1851C83.9987 21.7538 92.3392 -0.132795 95.0795 0.170104C95.3549 0.19996 95.6768 0.303014 96.0369 0.468094C100.246 2.407 109.668 12.908 110.319 16.2301Z" fill="#F99746"/>
  <path fill-rule="evenodd" clip-rule="evenodd" d="M95.7673 3.6756C93.8115 7.23189 80.742 30.8175 80.5371 31.1851C83.9992 21.7538 92.3397 -0.132795 95.08 0.170104C95.08 0.170104 95.6228 0.15385 96.0374 0.468094C96.5366 0.849102 96.8466 1.71186 95.7673 3.6756Z" fill="#ED7D2B"/>
  <path fill-rule="evenodd" clip-rule="evenodd" d="M74.3729 33.6867H74.3675C66.5392 32.5593 51.8761 30.2009 49.2442 28.0186C48.056 24.5142 51.1391 24.2286 53.3834 23.982C55.6256 23.7355 74.3729 33.6867 74.3729 33.6867Z" fill="#ED7D2B"/>
  <path fill-rule="evenodd" clip-rule="evenodd" d="M73.3242 35.4782C73.3242 35.4782 75.1194 31.2031 78.6522 30.9663C82.3423 30.7191 84.4378 35.4782 84.4378 35.4782H73.3242Z" fill="#ED7D2B"/>
  <path fill-rule="evenodd" clip-rule="evenodd" d="M44.1973 43.2742V35.4824H115.707V43.2742H44.1973Z" fill="#FFC261"/>
  <path fill-rule="evenodd" clip-rule="evenodd" d="M75.142 34.8301C75.142 34.8301 64.9702 31.4569 58.1063 33.6871C50.1945 36.2576 50.6635 46.4777 50.6635 46.4777L52.5239 45.6769L55.0361 46.9106C55.0361 46.9106 55.4599 36.0886 61.9103 34.5736C67.4878 33.2636 75.142 34.8301 75.142 34.8301Z" fill="#F99746"/>
  <path fill-rule="evenodd" clip-rule="evenodd" d="M66.1367 92.1277H69.9245V35.4824H66.1367V92.1277Z" fill="#FFA412"/>
  <path fill-rule="evenodd" clip-rule="evenodd" d="M93.7517 46.4209C93.7493 46.4218 93.7476 46.4228 93.7443 46.4237C93.7313 46.4218 93.7345 46.4209 93.7517 46.4209Z" fill="#FFB27D"/>
  <path fill-rule="evenodd" clip-rule="evenodd" d="M38.6191 92.2047V63.3945H73.4156V92.2047H38.6191Z" fill="#4E73FF"/>
  <path fill-rule="evenodd" clip-rule="evenodd" d="M38.6191 79.5048H63.861V77.4883H38.6191V79.5048Z" fill="#AFCDFB"/>
  <path fill-rule="evenodd" clip-rule="evenodd" d="M63.8613 79.5048H73.4159V77.4883H63.8613V79.5048Z" fill="#88B3FF"/>
  <path fill-rule="evenodd" clip-rule="evenodd" d="M57.0342 62.9509C57.0342 62.9509 64.7725 59.274 70.1667 60.6714L69.0896 61.426L69.6325 62.7579C69.6325 62.7579 63.6312 61.1201 56.8789 63.1682L57.0342 62.9509Z" fill="#4A75CB"/>
  <path fill-rule="evenodd" clip-rule="evenodd" d="M55.7076 62.8099C55.7076 62.8099 54.7016 62.6824 53.2018 62.4668C49.2205 61.8934 41.7631 60.6941 40.4251 59.584C38.3215 57.8406 43.3055 50.4355 45.4624 49.4078C47.6199 48.3812 55.7076 62.8099 55.7076 62.8099Z" fill="#6C8FFF"/>
  <path fill-rule="evenodd" clip-rule="evenodd" d="M71.4862 53.5892C71.8458 55.4234 55.5605 63.3489 55.5605 63.3489C55.5605 63.3489 55.8571 62.5102 56.339 61.1969C56.339 61.1969 56.3396 61.1958 56.3401 61.1947C58.1008 56.3981 62.3425 45.2674 63.7361 45.4215C63.8762 45.4367 64.0401 45.4891 64.2229 45.573C66.3637 46.5591 71.1552 51.8994 71.4862 53.5892Z" fill="#6C8FFF"/>
  <path fill-rule="evenodd" clip-rule="evenodd" d="M64.0851 47.2042C63.0905 49.0127 56.4439 61.0073 56.3398 61.1947C58.1006 56.3981 62.3422 45.2674 63.7358 45.4215C63.7358 45.4215 64.0118 45.4133 64.2226 45.573C64.4765 45.7668 64.6345 46.2056 64.0851 47.2042Z" fill="#4A75CB"/>
  <path fill-rule="evenodd" clip-rule="evenodd" d="M53.2048 62.467H53.2021C49.2208 61.8936 41.7634 60.6943 40.4254 59.5842C39.8205 57.8025 41.3887 57.6569 42.53 57.5316C43.6702 57.4063 53.2048 62.467 53.2048 62.467Z" fill="#4A75CB"/>
  <path fill-rule="evenodd" clip-rule="evenodd" d="M52.6699 63.3776C52.6699 63.3776 53.5826 61.2036 55.3795 61.0828C57.2561 60.9575 58.3219 63.3776 58.3219 63.3776H52.6699Z" fill="#4A75CB"/>
  <path fill-rule="evenodd" clip-rule="evenodd" d="M37.8555 67.357H64.2672V63.3945H37.8555V67.357Z" fill="#6C8FFF"/>
  <path fill-rule="evenodd" clip-rule="evenodd" d="M64.2676 67.357H74.2227V63.3945H64.2676V67.357Z" fill="#6C8FFF"/>
  <path fill-rule="evenodd" clip-rule="evenodd" d="M53.5923 63.0626C53.5923 63.0626 48.419 61.3474 44.9283 62.4813C40.905 63.7889 41.1433 68.9862 41.1433 68.9862L42.0894 68.5793L43.3671 69.2063C43.3671 69.2063 43.5827 63.7031 46.8632 62.9322C49.6994 62.2662 53.5923 63.0626 53.5923 63.0626Z" fill="#4A75CB"/>
  <path fill-rule="evenodd" clip-rule="evenodd" d="M49.0117 92.453H50.9379V63.3945H49.0117V92.453Z" fill="#AFCDFB"/>
  <path fill-rule="evenodd" clip-rule="evenodd" d="M130.208 74.2004C130.131 74.2501 130.052 74.298 129.972 74.3437C129.945 74.3595 129.918 74.3753 129.891 74.39C129.829 74.4244 129.767 74.4577 129.704 74.4905C126.708 76.0306 123.054 74.8483 121.425 71.7555C119.872 68.8055 120.707 65.1518 123.256 63.2335C123.459 63.08 123.673 62.9383 123.898 62.8085C123.978 62.7622 124.06 62.7176 124.142 62.6753C124.221 62.6341 124.301 62.5946 124.381 62.5574C124.627 62.4422 124.878 62.3452 125.13 62.2661C125.506 62.1476 125.887 62.0681 126.269 62.0257C127.454 61.8942 128.647 62.1211 129.704 62.6623C130.825 63.2363 131.795 64.1653 132.444 65.3967C134.077 68.4985 133.071 72.3775 130.208 74.2004Z" fill="#FFB93E"/>
  <path fill-rule="evenodd" clip-rule="evenodd" d="M126.966 63.0014C126.063 63.0014 125.165 63.244 124.369 63.7034C123.108 64.4309 122.193 65.6291 121.793 67.0767C121.393 68.5249 121.556 70.0493 122.25 71.3688C123.199 73.1697 125.01 74.2883 126.976 74.2883C127.879 74.2883 128.777 74.0456 129.573 73.5862C130.834 72.8587 131.748 71.6606 132.148 70.2129C132.548 68.7653 132.386 67.2409 131.691 65.9209C130.742 64.12 128.932 63.0014 126.966 63.0014ZM126.976 74.6467C124.885 74.6467 122.959 73.457 121.951 71.5415C121.212 70.1379 121.039 68.517 121.465 66.9774C121.89 65.4378 122.863 64.164 124.204 63.3902C125.05 62.9015 126.005 62.6436 126.966 62.6436C129.057 62.6436 130.982 63.8333 131.99 65.7482C132.73 67.1518 132.902 68.7727 132.477 70.3123C132.051 71.8519 131.079 73.1262 129.738 73.9C128.892 74.3882 127.936 74.6467 126.976 74.6467Z" fill="#FFA412"/>
  <path fill-rule="evenodd" clip-rule="evenodd" d="M126.972 64.2266L128.236 66.9079L131.062 67.338L129.017 69.425L129.499 72.3722L126.972 70.9804L124.443 72.3722L124.926 69.425L122.881 67.338L125.707 66.9079L126.972 64.2266Z" fill="#FFA412"/>
  <path fill-rule="evenodd" clip-rule="evenodd" d="M31.5429 54.0048C31.4384 54.0716 31.3326 54.1361 31.2252 54.1976C31.1883 54.2189 31.152 54.2401 31.1157 54.2599C31.0323 54.3062 30.949 54.351 30.8648 54.395C26.8351 56.4667 21.9198 54.8763 19.7284 50.7161C17.6391 46.748 18.7624 41.8331 22.1911 39.2528C22.4644 39.0463 22.7523 38.8557 23.0547 38.6811C23.1628 38.6189 23.2723 38.5589 23.3825 38.5019C23.4891 38.4465 23.5964 38.3934 23.7045 38.3433C24.0359 38.1884 24.3724 38.0578 24.7125 37.9516C25.2179 37.7921 25.7306 37.6851 26.2448 37.6282C27.8387 37.4513 29.4428 37.7564 30.8648 38.4845C32.3732 39.2566 33.6778 40.5061 34.5509 42.1626C36.7474 46.335 35.3935 51.5527 31.5429 54.0048Z" fill="#FFB93E"/>
  <path fill-rule="evenodd" clip-rule="evenodd" d="M27.1325 38.9069C25.9185 38.9069 24.7111 39.2333 23.6406 39.8511C21.9461 40.8293 20.7162 42.4406 20.1784 44.3872C19.6407 46.3347 19.8588 48.3846 20.793 50.159C22.0679 52.5807 24.5024 54.0849 27.1456 54.0849C28.3595 54.0849 29.567 53.7586 30.6367 53.1408C32.3319 52.1626 33.5619 50.5513 34.0996 48.6047C34.6374 46.658 34.4192 44.6081 33.4843 42.8329C32.2095 40.4112 29.7757 38.9069 27.1325 38.9069ZM27.1456 54.5669C24.3349 54.5669 21.7461 52.967 20.3908 50.3912C19.3971 48.5037 19.1645 46.324 19.7371 44.2537C20.3089 42.1833 21.6164 40.4704 23.4188 39.4299C24.5567 38.7726 25.841 38.4258 27.1325 38.4258C29.9431 38.4258 32.5312 40.0256 33.8873 42.6007C34.8809 44.4882 35.1128 46.6678 34.541 48.7382C33.9692 50.8086 32.6617 52.5223 30.8592 53.5628C29.7214 54.2193 28.4371 54.5669 27.1456 54.5669Z" fill="#FFA412"/>
  <path fill-rule="evenodd" clip-rule="evenodd" d="M27.1395 40.5703L28.8389 44.1744L32.6383 44.7525L29.8889 47.5578L30.5375 51.5192L27.1395 49.6485L23.7407 51.5192L24.3901 47.5578L21.6406 44.7525L25.4401 44.1744L27.1395 40.5703Z" fill="#FFA412"/>
  <path fill-rule="evenodd" clip-rule="evenodd" d="M40.0055 34.7011C39.951 34.736 39.8957 34.7697 39.8397 34.8018C39.8203 34.8129 39.8014 34.824 39.7825 34.8343C39.7389 34.8585 39.6953 34.8819 39.6514 34.9049C37.5467 35.9869 34.9795 35.1563 33.8349 32.9834C32.7437 30.9109 33.3304 28.3439 35.1212 26.9962C35.2639 26.8884 35.4143 26.7888 35.5723 26.6976C35.6287 26.6651 35.6859 26.6338 35.7434 26.6041C35.7991 26.5751 35.8552 26.5474 35.9116 26.5212C36.0847 26.4403 36.2604 26.3721 36.4381 26.3166C36.7021 26.2333 36.9698 26.1774 37.2384 26.1477C38.0709 26.0553 38.9087 26.2147 39.6514 26.5949C40.4392 26.9982 41.1206 27.6508 41.5766 28.516C42.7239 30.6952 42.0167 33.4204 40.0055 34.7011Z" fill="#FFB93E"/>
  <path fill-rule="evenodd" clip-rule="evenodd" d="M37.6751 26.8239C37.0427 26.8239 36.4136 26.9939 35.8559 27.3158C34.9731 27.8254 34.3324 28.6649 34.0522 29.679C33.772 30.6936 33.8857 31.7616 34.3724 32.686C35.0366 33.9477 36.3049 34.7313 37.6819 34.7313C38.3144 34.7313 38.9434 34.5613 39.5007 34.2395C40.3839 33.7298 41.0247 32.8904 41.3048 31.8762C41.585 30.862 41.4714 29.7941 40.9843 28.8693C40.3201 27.6076 39.0522 26.8239 37.6751 26.8239ZM37.6819 34.9824C36.2176 34.9824 34.8689 34.1489 34.1628 32.807C33.6452 31.8236 33.5239 30.6881 33.8222 29.6094C34.1202 28.5308 34.8013 27.6384 35.7404 27.0963C36.3332 26.7539 37.0023 26.5732 37.6751 26.5732C39.1394 26.5732 40.4877 27.4067 41.1942 28.7483C41.7119 29.7316 41.8327 30.8672 41.5348 31.9458C41.2369 33.0244 40.5557 33.9172 39.6167 34.4593C39.0238 34.8013 38.3548 34.9824 37.6819 34.9824Z" fill="#FFA412"/>
  <path fill-rule="evenodd" clip-rule="evenodd" d="M37.6791 27.7021L38.5705 29.5785L40.5633 29.8795L39.1212 31.34L39.4614 33.4023L37.6791 32.4284L35.8965 33.4023L36.237 31.34L34.7949 29.8795L36.7878 29.5785L37.6791 27.7021Z" fill="#FFA412"/>
  <path fill-rule="evenodd" clip-rule="evenodd" d="M133.979 58.1732C133.935 58.2009 133.89 58.2279 133.846 58.2539C133.83 58.2629 133.815 58.2714 133.799 58.2799C133.764 58.2996 133.73 58.3182 133.694 58.3363C132.004 59.206 129.941 58.5389 129.022 56.7933C128.145 55.1284 128.616 53.0662 130.055 51.9832C130.169 51.8968 130.29 51.8167 130.417 51.7439C130.463 51.7173 130.509 51.6919 130.555 51.6682C130.6 51.6451 130.644 51.6225 130.69 51.6016C130.829 51.5367 130.97 51.482 131.113 51.4374C131.325 51.3708 131.54 51.3257 131.756 51.302C132.425 51.2275 133.097 51.3556 133.694 51.6609C134.327 51.9848 134.875 52.5091 135.241 53.2045C136.163 54.9551 135.595 57.1443 133.979 58.1732Z" fill="#FFB93E"/>
  <path fill-rule="evenodd" clip-rule="evenodd" d="M132.147 51.8524C131.638 51.8524 131.131 51.9896 130.682 52.2486C129.971 52.6595 129.454 53.3356 129.228 54.1528C129.002 54.9695 129.094 55.8301 129.486 56.5751C130.022 57.591 131.043 58.2225 132.153 58.2225C132.663 58.2225 133.17 58.0854 133.619 57.8263C134.331 57.4155 134.847 56.7393 135.073 55.9227C135.299 55.1055 135.207 54.2448 134.814 53.5004C134.279 52.484 133.257 51.8524 132.147 51.8524ZM132.153 58.4246C130.973 58.4246 129.886 57.7535 129.318 56.6722C128.9 55.8804 128.803 54.9655 129.043 54.0964C129.283 53.2272 129.832 52.5082 130.589 52.072C131.067 51.796 131.606 51.6504 132.147 51.6504C133.328 51.6504 134.414 52.322 134.984 53.4028C135.401 54.1946 135.498 55.1094 135.258 55.9786C135.018 56.8477 134.469 57.5667 133.712 58.0035C133.234 58.279 132.696 58.4246 132.153 58.4246Z" fill="#FFA412"/>
  <path fill-rule="evenodd" clip-rule="evenodd" d="M132.151 52.5439L132.864 54.0576L134.459 54.3003L133.305 55.4781L133.577 57.1413L132.151 56.3557L130.724 57.1413L130.996 55.4781L129.842 54.3003L131.437 54.0576L132.151 52.5439Z" fill="#FFA412"/>
  <path fill-rule="evenodd" clip-rule="evenodd" d="M73.0794 10.0095C73.0535 10.0428 73.0271 10.0757 72.9996 10.108C72.9899 10.119 72.9808 10.1298 72.9716 10.1404C72.95 10.165 72.9285 10.1889 72.9064 10.2126C71.8503 11.3412 70.1224 11.4127 68.9833 10.3505C67.897 9.33748 67.7283 7.64798 68.5391 6.42848C68.6038 6.33118 68.6744 6.23693 68.752 6.14629C68.7795 6.11378 68.8076 6.08195 68.8367 6.05108C68.8642 6.02094 68.8927 5.99148 68.9219 5.96293C69.0103 5.87511 69.103 5.79446 69.1995 5.72081C69.3424 5.61115 69.4938 5.51707 69.6507 5.4389C70.137 5.19622 70.6777 5.10508 71.2066 5.16942C71.7672 5.23754 72.3144 5.48078 72.7678 5.90378C73.9096 6.96903 74.0385 8.78141 73.0794 10.0095Z" fill="#CDE0FB"/>
  <path fill-rule="evenodd" clip-rule="evenodd" d="M70.9034 5.59951C70.8554 5.59951 70.8075 5.60092 70.7595 5.6038C70.1099 5.64302 69.5136 5.9449 69.0802 6.45369C68.6473 6.96247 68.4295 7.61737 68.4672 8.29772C68.5044 8.97802 68.7928 9.60238 69.2791 10.0557C69.7648 10.509 70.3907 10.7371 71.0403 10.6977C71.6905 10.6585 72.2868 10.3567 72.7197 9.84783C73.1526 9.33905 73.3704 8.68415 73.3332 8.00385C73.2954 7.32355 73.007 6.69919 72.5213 6.24588C72.0711 5.8261 71.5013 5.59951 70.9034 5.59951ZM70.8969 10.8639C70.2608 10.8639 69.6548 10.623 69.1761 10.1765C68.6591 9.69443 68.3524 9.0305 68.313 8.30703C68.2731 7.58356 68.5044 6.88712 68.9648 6.34606C69.4257 5.80494 70.0597 5.48398 70.7508 5.44222C71.4414 5.39994 72.1072 5.64302 72.6242 6.12505C73.1407 6.60714 73.4474 7.27101 73.4873 7.99454C73.5272 8.71801 73.2954 9.41445 72.835 9.95551C72.3746 10.4966 71.7406 10.8176 71.0495 10.8593C70.9983 10.8624 70.9471 10.8639 70.8969 10.8639Z" fill="#AFCDFB"/>
  <path fill-rule="evenodd" clip-rule="evenodd" d="M70.2658 6.2666L71.1899 7.2108L72.4568 6.94893L71.8848 8.16098L72.5145 9.34148L71.2362 9.14638L70.3586 10.1378L70.1408 8.80521L68.9688 8.23751L70.1122 7.60896L70.2658 6.2666Z" fill="#AFCDFB"/>
  <path fill-rule="evenodd" clip-rule="evenodd" d="M64.7618 90.177C64.7154 90.2368 64.6675 90.2955 64.6184 90.353C64.6017 90.3728 64.585 90.392 64.5683 90.4112C64.53 90.4546 64.4912 90.4975 64.4518 90.5398C62.566 92.5558 59.4791 92.6833 57.4451 90.7859C55.5049 88.9765 55.2024 85.9588 56.6515 83.7809C56.7669 83.6065 56.8936 83.4383 57.0311 83.2764C57.0807 83.2188 57.1313 83.1618 57.1826 83.1065C57.2321 83.0529 57.2834 82.9998 57.3346 82.949C57.4931 82.7921 57.6586 82.6482 57.8306 82.5167C58.0866 82.3209 58.3562 82.1527 58.6365 82.0133C59.5055 81.5799 60.4716 81.4168 61.4156 81.5319C62.4173 81.6532 63.3946 82.0878 64.2044 82.8435C66.2443 84.746 66.474 87.9832 64.7618 90.177Z" fill="#CDE0FB"/>
  <path fill-rule="evenodd" clip-rule="evenodd" d="M60.8752 82.2987C60.79 82.2987 60.7049 82.3015 60.6186 82.3066C59.4579 82.3766 58.3927 82.9156 57.6196 83.8248C56.846 84.7334 56.4567 85.9034 56.5236 87.1185C56.591 88.3336 57.1058 89.4488 57.9738 90.2587C58.8423 91.068 59.9598 91.4754 61.12 91.4055C62.2812 91.3355 63.3459 90.7959 64.1196 89.8873C64.8932 88.9781 65.2824 87.8087 65.215 86.5936C65.1482 85.3785 64.6333 84.2633 63.7654 83.4534C62.961 82.7034 61.9432 82.2987 60.8752 82.2987ZM60.8634 91.7023C59.7275 91.7023 58.6455 91.2717 57.7905 90.4742C56.867 89.613 56.3193 88.4273 56.2481 87.1348C56.1769 85.8424 56.5904 84.5985 57.4131 83.6323C58.2358 82.6656 59.3684 82.0927 60.603 82.0182C61.8364 81.9426 63.0257 82.3766 63.9487 83.2378C64.8721 84.0985 65.4199 85.2843 65.491 86.5767C65.5622 87.8691 65.1482 89.113 64.326 90.0797C63.5034 91.046 62.3707 91.6194 61.1361 91.6939C61.045 91.6995 60.9539 91.7023 60.8634 91.7023Z" fill="#AFCDFB"/>
  <path fill-rule="evenodd" clip-rule="evenodd" d="M59.737 83.4912L61.3877 85.1776L63.6509 84.7097L62.6287 86.8746L63.7533 88.9831L61.4707 88.6349L59.9025 90.4059L59.5138 88.0254L57.4199 87.0112L59.4626 85.8887L59.737 83.4912Z" fill="#AFCDFB"/>
  <path fill-rule="evenodd" clip-rule="evenodd" d="M80.6816 55.8861C80.6816 55.8861 79.9781 56.3884 79.1958 56.306C78.6152 56.2445 78.0432 55.6818 78.0211 55.6445L77.5586 56.4866C77.5586 56.4866 78.6169 57.1588 79.5242 56.9748C79.8018 56.9183 80.2525 56.6294 80.4563 56.4126C80.6805 56.1739 80.6816 55.8861 80.6816 55.8861Z" fill="#6BB7BF"/>
  <path fill-rule="evenodd" clip-rule="evenodd" d="M80.6621 54.1309L81.8249 53.627C81.8249 53.627 81.6654 56.157 79.668 56.9302C79.668 56.9302 80.93 55.1982 80.6621 54.1309Z" fill="#86D1CD"/>
  <path fill-rule="evenodd" clip-rule="evenodd" d="M80.8531 76.0981C80.8531 76.0981 80.3932 75.5139 80.3997 74.8152C80.4051 74.296 80.8159 73.7463 80.8439 73.7237L80.128 73.3789C80.128 73.3789 79.6665 74.3677 79.8848 75.1567C79.9517 75.3982 80.2196 75.7752 80.4105 75.9389C80.6207 76.119 80.8531 76.0981 80.8531 76.0981Z" fill="#CDE0FB"/>
  <path fill-rule="evenodd" clip-rule="evenodd" d="M82.2697 75.9466L82.7663 76.9371C82.7663 76.9371 80.7101 76.9902 79.9316 75.2812C79.9316 75.2812 81.4282 76.2655 82.2697 75.9466Z" fill="#CDE0FB"/>
</svg>