<svg xmlns="http://www.w3.org/2000/svg" width="129" height="95" viewBox="0 0 129 95" fill="none">
  <g clip-path="url(#clip0_4889_1115)">
    <path d="M92.7648 33.0466H48.4724C47.7682 33.0458 47.0931 32.7657 46.5952 32.2678C46.0973 31.7699 45.8172 31.0948 45.8164 30.3906V4.26279C45.817 3.73615 46.0265 3.23125 46.3988 2.85885C46.7712 2.48645 47.2761 2.27697 47.8028 2.27637H93.4026C93.9377 2.27698 94.4506 2.4898 94.829 2.86815C95.2073 3.24649 95.4201 3.75946 95.4207 4.29451V30.3906C95.4199 31.0948 95.1399 31.7699 94.6419 32.2678C94.144 32.7657 93.4689 33.0458 92.7648 33.0466Z" fill="white"/>
    <path d="M92.7648 33.0466H48.4724C47.7682 33.0458 47.0931 32.7657 46.5952 32.2678C46.0973 31.7699 45.8172 31.0948 45.8164 30.3906V4.26279C45.817 3.73615 46.0265 3.23125 46.3988 2.85885C46.7712 2.48645 47.2761 2.27697 47.8028 2.27637H93.4026C93.9377 2.27698 94.4506 2.4898 94.829 2.86815C95.2073 3.24649 95.4201 3.75946 95.4207 4.29451V30.3906C95.4199 31.0948 95.1399 31.7699 94.6419 32.2678C94.144 32.7657 93.4689 33.0458 92.7648 33.0466ZM47.8028 2.57991C47.3566 2.58042 46.9288 2.75788 46.6134 3.07338C46.2979 3.38887 46.1204 3.81663 46.1199 4.26279V30.3906C46.1207 31.0143 46.3687 31.6122 46.8097 32.0533C47.2508 32.4943 47.8487 32.7424 48.4724 32.7431H92.7648C93.3885 32.7424 93.9864 32.4943 94.4274 32.0533C94.8684 31.6122 95.1165 31.0143 95.1172 30.3906V4.29451C95.1167 3.83993 94.9359 3.40412 94.6144 3.08268C94.293 2.76124 93.8572 2.58043 93.4026 2.57991H47.8028Z" fill="#3F3D56"/>
    <path d="M50.901 30.3906H90.3367C90.9807 30.3906 91.5984 30.1347 92.0538 29.6793C92.5092 29.2239 92.765 28.6063 92.765 27.9622V8.90782C92.765 8.26378 92.5092 7.64613 92.0538 7.19073C91.5984 6.73533 90.9807 6.47949 90.3367 6.47949H50.901C50.2569 6.47949 49.6393 6.73533 49.1839 7.19073C48.7285 7.64613 48.4727 8.26378 48.4727 8.90782V27.9622C48.4727 28.6063 48.7285 29.2239 49.1839 29.6793C49.6393 30.1347 50.2569 30.3906 50.901 30.3906Z" fill="#F2F2F2"/>
    <path d="M95.4857 4.11973H45.7051V2.8448C45.7097 2.17502 45.9798 1.53443 46.4562 1.06355C46.9325 0.592668 47.5762 0.329954 48.246 0.333035H92.9448C93.6146 0.32995 94.2582 0.592663 94.7346 1.06354C95.2109 1.53442 95.4811 2.17502 95.4857 2.8448V4.11973Z" fill="#7956D8"/>
    <path d="M50.4997 2.88027C50.8587 2.88027 51.1498 2.58921 51.1498 2.23017C51.1498 1.87114 50.8587 1.58008 50.4997 1.58008C50.1407 1.58008 49.8496 1.87114 49.8496 2.23017C49.8496 2.58921 50.1407 2.88027 50.4997 2.88027Z" fill="white"/>
    <path d="M52.9685 2.88027C53.3275 2.88027 53.6185 2.58921 53.6185 2.23017C53.6185 1.87114 53.3275 1.58008 52.9685 1.58008C52.6094 1.58008 52.3184 1.87114 52.3184 2.23017C52.3184 2.58921 52.6094 2.88027 52.9685 2.88027Z" fill="white"/>
    <path d="M55.4353 2.88027C55.7943 2.88027 56.0853 2.58921 56.0853 2.23017C56.0853 1.87114 55.7943 1.58008 55.4353 1.58008C55.0762 1.58008 54.7852 1.87114 54.7852 2.23017C54.7852 2.58921 55.0762 2.88027 55.4353 2.88027Z" fill="white"/>
    <path d="M57.9205 23.4436C56.9299 23.4436 55.9616 23.1499 55.138 22.5995C54.3144 22.0492 53.6724 21.267 53.2934 20.3518C52.9143 19.4366 52.8151 18.4296 53.0083 17.4581C53.2016 16.4865 53.6786 15.5941 54.379 14.8937C55.0795 14.1933 55.9719 13.7162 56.9434 13.523C57.915 13.3297 58.922 13.4289 59.8372 13.808C60.7523 14.1871 61.5345 14.829 62.0849 15.6526C62.6352 16.4763 62.9289 17.4446 62.9289 18.4352C62.9274 19.763 62.3993 21.0361 61.4603 21.975C60.5214 22.9139 59.2484 23.4421 57.9205 23.4436Z" fill="#7956D8"/>
    <path d="M87.1114 22.533H67.7277C67.4146 22.5371 67.1115 22.4229 66.879 22.2132C66.6464 22.0035 66.5016 21.7138 66.4735 21.402C66.4623 21.2359 66.4853 21.0694 66.5411 20.9126C66.5968 20.7558 66.6842 20.6122 66.7978 20.4906C66.9114 20.3689 67.0487 20.2719 67.2013 20.2055C67.3539 20.1392 67.5185 20.1048 67.6849 20.1046H87.0633C87.378 20.1 87.6827 20.2146 87.9164 20.4253C88.15 20.636 88.2953 20.9273 88.3231 21.2408C88.3336 21.4064 88.31 21.5724 88.2539 21.7286C88.1978 21.8848 88.1102 22.0278 87.9967 22.1489C87.8832 22.27 87.7461 22.3665 87.5938 22.4325C87.4416 22.4986 87.2774 22.5328 87.1114 22.533Z" fill="#3F3D56"/>
    <path d="M76.9428 17.3728H67.7277C67.4146 17.3769 67.1115 17.2628 66.879 17.0531C66.6464 16.8434 66.5016 16.5537 66.4735 16.2418C66.4623 16.0758 66.4853 15.9092 66.5411 15.7525C66.5968 15.5957 66.6842 15.452 66.7978 15.3304C66.9114 15.2088 67.0487 15.1118 67.2013 15.0454C67.3539 14.979 67.5185 14.9447 67.6849 14.9445H76.8947C77.2094 14.9398 77.5141 15.0544 77.7478 15.2651C77.9814 15.4759 78.1267 15.7672 78.1545 16.0806C78.165 16.2462 78.1414 16.4123 78.0853 16.5685C78.0292 16.7246 77.9416 16.8677 77.8281 16.9887C77.7146 17.1098 77.5775 17.2063 77.4252 17.2724C77.273 17.3384 77.1088 17.3726 76.9428 17.3728Z" fill="#3F3D56"/>
    <path d="M115.526 68.9945C115.601 68.7842 115.628 68.5601 115.607 68.338C115.586 68.116 115.516 67.9012 115.402 67.709C115.289 67.5168 115.135 67.3518 114.951 67.2256C114.767 67.0994 114.558 67.015 114.338 66.9785L113.423 61.6328L111.365 63.5591L112.55 68.3401C112.513 68.714 112.614 69.0883 112.835 69.3923C113.056 69.6962 113.38 69.9087 113.747 69.9893C114.114 70.07 114.498 70.0133 114.826 69.8299C115.154 69.6465 115.403 69.3493 115.526 68.9945V68.9945Z" fill="#FFB8B8"/>
    <path d="M114.159 66.4361L112.139 66.9661C112.043 66.9909 111.941 66.9772 111.855 66.928C111.769 66.8787 111.705 66.7978 111.678 66.7024L108.048 53.8428L106.952 50.5623C106.846 50.2462 106.822 49.9085 106.882 49.5806C106.942 49.2527 107.084 48.9454 107.294 48.6871C107.505 48.4288 107.777 48.228 108.087 48.1033C108.396 47.9787 108.731 47.9343 109.062 47.9742C109.445 48.0202 109.806 48.1774 110.101 48.4264C110.396 48.6753 110.611 49.0052 110.72 49.3751L113.62 59.1784L114.439 66.0241C114.448 66.1002 114.434 66.1772 114.398 66.2451C114.363 66.313 114.307 66.3686 114.24 66.4046C114.214 66.4182 114.187 66.4288 114.159 66.4361Z" fill="#CCCCCC"/>
    <path d="M106.778 45.8059C108.837 45.8059 110.506 44.1369 110.506 42.0782C110.506 40.0195 108.837 38.3506 106.778 38.3506C104.72 38.3506 103.051 40.0195 103.051 42.0782C103.051 44.1369 104.72 45.8059 106.778 45.8059Z" fill="#FFB8B8"/>
    <path d="M95.803 93.0721L94.0195 92.5415L95.2176 85.4102L97.8498 86.1933L95.803 93.0721Z" fill="#FFB8B8"/>
    <path d="M95.7426 94.9364L89.9922 93.2254L90.0138 93.1527C90.1013 92.8588 90.2458 92.5849 90.439 92.3468C90.6323 92.1087 90.8706 91.9111 91.1402 91.7651C91.4099 91.619 91.7057 91.5276 92.0107 91.4959C92.3158 91.4642 92.624 91.4929 92.918 91.5804L92.9181 91.5804L96.4302 92.6254L95.7426 94.9364Z" fill="#2F2E41"/>
    <path d="M115.342 92.9806H113.481L112.596 85.8037L114.431 85.8039L115.342 92.9806Z" fill="#FFB8B8"/>
    <path d="M115.816 94.7843L109.816 94.7841V94.7082C109.816 94.4016 109.877 94.0979 109.994 93.8146C110.112 93.5313 110.284 93.2738 110.5 93.057C110.717 92.8401 110.975 92.6681 111.258 92.5508C111.541 92.4334 111.845 92.373 112.152 92.373H112.152L115.816 92.3732L115.816 94.7843Z" fill="#2F2E41"/>
    <path d="M96.4874 90.9624H94.6191C94.519 90.9624 94.4201 90.9404 94.3294 90.8979C94.2387 90.8554 94.1585 90.7935 94.0944 90.7165C94.0303 90.6396 93.9839 90.5495 93.9585 90.4526C93.9331 90.3558 93.9293 90.2545 93.9474 90.156C92.7561 89.626 99.1707 58.8632 100.686 59.4596L100.736 59.3877L108.368 60.0105C111.787 66.8522 113.951 78.1733 115.975 89.9918C116 90.0899 116.003 90.1923 115.984 90.2916C115.964 90.3909 115.923 90.4846 115.863 90.5659C115.802 90.6473 115.725 90.7143 115.636 90.762C115.546 90.8097 115.448 90.837 115.347 90.8419L113.248 90.9438C113.106 90.9511 112.965 90.9138 112.845 90.8369C112.725 90.76 112.633 90.6475 112.58 90.5153L104.538 70.4106C104.522 70.3667 104.493 70.329 104.454 70.3032C104.415 70.2775 104.368 70.265 104.322 70.2676C104.275 70.268 104.23 70.283 104.192 70.3104C104.155 70.3378 104.126 70.3762 104.112 70.4204L97.1325 90.5037C97.0859 90.6376 96.9987 90.7538 96.8831 90.836C96.7675 90.9181 96.6292 90.9623 96.4874 90.9624Z" fill="#2F2E41"/>
    <path d="M108.528 60.6119L108.47 60.6076L100.344 59.9943L101.769 50.9291C101.925 49.9172 102.405 48.983 103.136 48.266C103.867 47.5489 104.81 47.0875 105.825 46.9505C105.887 46.9417 105.95 46.9332 106.013 46.9248C106.81 46.82 107.621 46.9218 108.368 47.2205C109.114 47.5193 109.771 48.0049 110.276 48.6308C110.792 49.2603 111.139 50.012 111.281 50.8139C111.423 51.6157 111.357 52.4407 111.088 53.2095L108.528 60.6119Z" fill="#CCCCCC"/>
    <path d="M114.017 46.3412C111.454 47.5137 107.976 47.3039 104 46.3412C104.55 44.8342 104.979 43.3786 104.493 42.3101C104.296 41.9067 104.185 41.4671 104.167 41.0188C104.149 40.5705 104.223 40.1233 104.386 39.7052C104.767 38.7936 105.409 38.015 106.232 37.4675C107.054 36.9199 108.02 36.6278 109.008 36.6279C110.337 36.6279 111.611 37.1556 112.55 38.0949C113.489 39.0341 114.017 40.308 114.017 41.6363V46.3412Z" fill="#2F2E41"/>
    <path d="M105.366 36.9688H108.553V40.8881H101.875V40.4595C101.875 39.5337 102.243 38.6458 102.897 37.9912C103.552 37.3365 104.44 36.9687 105.366 36.9688Z" fill="#2F2E41"/>
    <path d="M100.169 69.8367C100.333 69.686 100.462 69.5009 100.548 69.2947C100.633 69.0885 100.672 68.8662 100.662 68.6433C100.652 68.4204 100.593 68.2024 100.49 68.0047C100.386 67.807 100.241 67.6343 100.063 67.4989L101.76 62.3477L99.0401 63.0852L97.8459 67.8639C97.6381 68.1768 97.5524 68.5551 97.6049 68.9271C97.6575 69.299 97.8446 69.6388 98.1309 69.882C98.4172 70.1252 98.7828 70.2549 99.1583 70.2465C99.5339 70.2382 99.8933 70.0924 100.169 69.8367Z" fill="#FFB8B8"/>
    <path d="M100.161 66.9373L98.1282 66.459C98.0316 66.4358 97.9479 66.376 97.8949 66.292C97.8419 66.2081 97.8236 66.1069 97.8442 66.0097L100.664 52.9487L101.233 49.5368C101.288 49.2081 101.425 48.8985 101.631 48.6369C101.838 48.3754 102.107 48.1703 102.414 48.0409C102.722 47.9114 103.056 47.8618 103.388 47.8965C103.719 47.9313 104.037 48.0493 104.31 48.2397C104.627 48.4598 104.872 48.7679 105.016 49.1259C105.16 49.4839 105.195 49.8762 105.118 50.2542L103.086 60.2736L100.602 66.7047C100.574 66.7761 100.525 66.8375 100.462 66.8808C100.399 66.924 100.324 66.9472 100.247 66.9473C100.218 66.9473 100.189 66.944 100.161 66.9373Z" fill="#CCCCCC"/>
    <path d="M128.564 94.9881H70.7397C70.6994 94.9881 70.6608 94.9721 70.6323 94.9437C70.6039 94.9152 70.5879 94.8766 70.5879 94.8363C70.5879 94.7961 70.6039 94.7575 70.6323 94.729C70.6608 94.7006 70.6994 94.6846 70.7397 94.6846H128.564C128.604 94.6846 128.643 94.7006 128.671 94.729C128.7 94.7575 128.716 94.7961 128.716 94.8363C128.716 94.8766 128.7 94.9152 128.671 94.9437C128.643 94.9721 128.604 94.9881 128.564 94.9881Z" fill="#CCCCCC"/>
    <path d="M20.6611 58.7556C20.5797 58.7765 20.5001 58.8037 20.4231 58.8371L14.0982 54.7569L14.1854 52.9304L11.4462 52.4385L10.9775 55.6568C10.9397 55.9168 10.9872 56.1821 11.1129 56.4128C11.2386 56.6435 11.4358 56.8272 11.6748 56.9363L19.4646 60.4924C19.5034 60.8136 19.639 61.1153 19.8535 61.3576C20.0679 61.5998 20.3511 61.771 20.6652 61.8484C20.9793 61.9258 21.3096 61.9057 21.612 61.7909C21.9144 61.676 22.1747 61.4718 22.3583 61.2053C22.5418 60.9389 22.6399 60.6229 22.6395 60.2994C22.639 59.9759 22.5401 59.6602 22.3559 59.3942C22.1716 59.1283 21.9108 58.9248 21.608 58.8107C21.3053 58.6966 20.975 58.6774 20.6611 58.7556H20.6611Z" fill="#FFB8B8"/>
    <path d="M13.8397 54.6448L10.4476 54.0186C10.3511 54.0008 10.2596 53.9624 10.1793 53.906C10.0989 53.8496 10.0317 53.7766 9.98214 53.6919C9.93258 53.6072 9.90186 53.5128 9.89208 53.4151C9.88229 53.3175 9.89367 53.2188 9.92543 53.126L11.0386 49.8722C11.1325 49.3789 11.4182 48.9429 11.8331 48.6599C12.2479 48.3769 12.7581 48.27 13.2517 48.3626C13.7453 48.4552 14.182 48.7398 14.466 49.154C14.7501 49.5681 14.8583 50.078 14.767 50.5718L14.6462 53.9975C14.6427 54.0956 14.6181 54.1917 14.5741 54.2795C14.5301 54.3672 14.4677 54.4444 14.3912 54.5058C14.3146 54.5673 14.2258 54.6115 14.1306 54.6355C14.0354 54.6594 13.9362 54.6626 13.8397 54.6448V54.6448Z" fill="#3F3D56"/>
    <path d="M79.8956 45.21H22.0711C21.5731 45.2094 21.0834 45.3386 20.6505 45.5848C20.5468 45.6437 20.447 45.7091 20.3516 45.7806C19.9903 46.0484 19.6969 46.3971 19.4947 46.7988C19.2926 47.2005 19.1874 47.6439 19.1875 48.0936V78.1441C19.1882 78.9087 19.4922 79.6417 20.0328 80.1824C20.5735 80.723 21.3066 81.027 22.0711 81.0277H79.8956C80.6601 81.027 81.3932 80.723 81.9338 80.1823C82.4745 79.6417 82.7785 78.9086 82.7792 78.1441V48.0936C82.7785 47.329 82.4745 46.596 81.9338 46.0553C81.3932 45.5147 80.6601 45.2107 79.8956 45.21Z" fill="white"/>
    <path d="M79.8956 45.21H22.0711C21.5731 45.2094 21.0834 45.3386 20.6505 45.5848C20.5468 45.6437 20.447 45.7091 20.3516 45.7806C19.9903 46.0484 19.6969 46.3971 19.4947 46.7988C19.2926 47.2005 19.1874 47.6439 19.1875 48.0936V78.1441C19.1882 78.9087 19.4922 79.6417 20.0328 80.1824C20.5735 80.723 21.3066 81.027 22.0711 81.0277H79.8956C80.6601 81.027 81.3932 80.723 81.9338 80.1823C82.4745 79.6417 82.7785 78.9086 82.7792 78.1441V48.0936C82.7785 47.329 82.4745 46.596 81.9338 46.0553C81.3932 45.5147 80.6601 45.2107 79.8956 45.21ZM82.4757 78.1441C82.4747 78.8281 82.2025 79.4837 81.7189 79.9674C81.2352 80.451 80.5796 80.7232 79.8956 80.7242H22.0711C21.3871 80.7232 20.7315 80.4511 20.2478 79.9674C19.7642 79.4838 19.492 78.8281 19.491 78.1441V48.0936C19.4932 47.5483 19.6671 47.0176 19.988 46.5768C20.309 46.136 20.7606 45.8075 21.2789 45.638C21.3001 45.6319 21.3198 45.6243 21.3411 45.6182C21.5782 45.5485 21.824 45.5133 22.0711 45.5135H79.8956C80.5796 45.5145 81.2352 45.7866 81.7189 46.2703C82.2025 46.7539 82.4747 47.4096 82.4757 48.0936V78.1441Z" fill="#3F3D56"/>
    <path d="M50.9205 63.1067C50.6902 63.1066 50.4637 63.0482 50.262 62.9369L20.0532 46.3101C20.0179 46.2907 19.9918 46.2581 19.9806 46.2194C19.9694 46.1808 19.974 46.1392 19.9934 46.104C20.0128 46.0687 20.0454 46.0426 20.0841 46.0314C20.1228 46.0202 20.1643 46.0248 20.1995 46.0442L50.4084 62.6711C50.5624 62.7561 50.7352 62.8015 50.9112 62.803C51.0872 62.8046 51.2608 62.7623 51.4163 62.6799L82.1224 46.4816C82.14 46.4722 82.1593 46.4665 82.1792 46.4646C82.199 46.4627 82.2191 46.4648 82.2382 46.4706C82.2572 46.4765 82.275 46.4861 82.2903 46.4988C82.3057 46.5116 82.3184 46.5272 82.3277 46.5448C82.337 46.5625 82.3427 46.5818 82.3446 46.6017C82.3464 46.6215 82.3443 46.6416 82.3384 46.6606C82.3325 46.6797 82.3229 46.6974 82.3101 46.7127C82.2973 46.7281 82.2817 46.7407 82.264 46.75L51.5579 62.9484C51.3615 63.0522 51.1427 63.1066 50.9205 63.1067Z" fill="#3F3D56"/>
    <path d="M28.8348 73.44H24.5853C24.2632 73.44 23.9544 73.3121 23.7267 73.0844C23.499 72.8567 23.3711 72.5479 23.3711 72.2259C23.3711 71.9039 23.499 71.595 23.7267 71.3673C23.9544 71.1396 24.2632 71.0117 24.5853 71.0117H28.8348C29.1568 71.0117 29.4657 71.1396 29.6934 71.3673C29.9211 71.595 30.049 71.9039 30.049 72.2259C30.049 72.5479 29.9211 72.8567 29.6934 73.0844C29.4657 73.3121 29.1568 73.44 28.8348 73.44Z" fill="#3F3D56"/>
    <path d="M33.8433 77.5377H24.5853C24.2632 77.5377 23.9544 77.4098 23.7267 77.1821C23.499 76.9544 23.3711 76.6456 23.3711 76.3235C23.3711 76.0015 23.499 75.6927 23.7267 75.465C23.9544 75.2373 24.2632 75.1094 24.5853 75.1094H33.8433C34.1653 75.1094 34.4741 75.2373 34.7018 75.465C34.9295 75.6927 35.0574 76.0015 35.0574 76.3235C35.0574 76.6456 34.9295 76.9544 34.7018 77.1821C34.4741 77.4098 34.1653 77.5377 33.8433 77.5377Z" fill="#3F3D56"/>
    <path d="M50.9074 67.976C53.5897 67.976 55.7641 65.8016 55.7641 63.1193C55.7641 60.4371 53.5897 58.2627 50.9074 58.2627C48.2252 58.2627 46.0508 60.4371 46.0508 63.1193C46.0508 65.8016 48.2252 67.976 50.9074 67.976Z" fill="#7956D8"/>
    <path d="M28.8917 48.0681L50.295 56.9979C50.3687 57.0287 50.4516 57.0291 50.5257 56.9991L72.5919 48.0693C72.6572 48.0429 72.7112 47.9946 72.7448 47.9326C72.7784 47.8707 72.7894 47.7991 72.776 47.7299C72.7625 47.6608 72.7254 47.5985 72.6711 47.5537C72.6167 47.5089 72.5484 47.4844 72.478 47.4844H29.0086C28.9385 47.4844 28.8705 47.5087 28.8162 47.5532C28.7619 47.5976 28.7248 47.6595 28.711 47.7283C28.6972 47.7971 28.7077 47.8686 28.7406 47.9305C28.7736 47.9924 28.827 48.041 28.8917 48.0681Z" fill="#F2F2F2"/>
    <path d="M25.6347 45.8192C25.6161 45.9011 25.604 45.9843 25.5984 46.0681L19.0788 49.8293L17.4941 48.917L15.8047 51.1286L18.4531 53.0163C18.6671 53.1688 18.9247 53.2478 19.1874 53.2414C19.4501 53.235 19.7036 53.1435 19.9099 52.9808L26.6327 47.6771C26.9361 47.7894 27.2665 47.8066 27.58 47.7266C27.8935 47.6465 28.1751 47.4729 28.3875 47.2289C28.5999 46.9849 28.733 46.682 28.769 46.3605C28.8051 46.0389 28.7424 45.7141 28.5893 45.4291C28.4362 45.1441 28.1999 44.9124 27.912 44.765C27.624 44.6175 27.298 44.5612 26.9772 44.6036C26.6565 44.6459 26.3563 44.7849 26.1165 45.0021C25.8766 45.2192 25.7086 45.5042 25.6347 45.8192Z" fill="#FFB8B8"/>
    <path d="M18.8601 50.008L16.7529 52.739C16.693 52.8167 16.617 52.8806 16.5301 52.9263C16.4433 52.9719 16.3476 52.9984 16.2496 53.0037C16.1516 53.0091 16.0536 52.9933 15.9622 52.9574C15.8709 52.9214 15.7884 52.8663 15.7203 52.7956L13.3349 50.3185C12.9391 50.0095 12.6821 49.5561 12.62 49.0579C12.558 48.5596 12.696 48.0571 13.0039 47.6604C13.3118 47.2638 13.7644 47.0054 14.2625 46.942C14.7606 46.8785 15.2635 47.0151 15.661 47.3219L18.6529 48.9948C18.7385 49.0428 18.8128 49.1086 18.8707 49.1878C18.9286 49.2671 18.9688 49.3578 18.9885 49.454C19.0081 49.5501 19.0068 49.6494 18.9847 49.745C18.9625 49.8406 18.92 49.9303 18.8601 50.008H18.8601Z" fill="#3F3D56"/>
    <path d="M10.2315 43.4865C12.2903 43.4865 13.9592 41.8176 13.9592 39.7589C13.9592 37.7002 12.2903 36.0312 10.2315 36.0312C8.17282 36.0312 6.50391 37.7002 6.50391 39.7589C6.50391 41.8176 8.17282 43.4865 10.2315 43.4865Z" fill="#FFB8B8"/>
    <path d="M13.7503 93.132H15.611L16.4961 85.9551L13.75 85.9552L13.7503 93.132Z" fill="#FFB8B8"/>
    <path d="M13.2754 92.5246L16.9397 92.5244H16.9399C17.2465 92.5244 17.5502 92.5848 17.8335 92.7021C18.1168 92.8195 18.3743 92.9915 18.5911 93.2084C18.8079 93.4252 18.98 93.6826 19.0973 93.9659C19.2147 94.2493 19.2751 94.5529 19.2751 94.8596V94.9355L13.2755 94.9357L13.2754 92.5246Z" fill="#2F2E41"/>
    <path d="M7.3753 93.132H9.23601L10.1211 85.9551L7.375 85.9552L7.3753 93.132Z" fill="#FFB8B8"/>
    <path d="M6.90039 92.5246L10.5647 92.5244H10.5649C10.8715 92.5244 11.1752 92.5848 11.4585 92.7021C11.7418 92.8195 11.9993 92.9915 12.2161 93.2084C12.4329 93.4252 12.605 93.6826 12.7223 93.9659C12.8397 94.2493 12.9001 94.5529 12.9001 94.8596V94.9355L6.90051 94.9357L6.90039 92.5246Z" fill="#2F2E41"/>
    <path d="M13.1916 90.4083L11.2936 75.7239C11.2926 75.7044 11.284 75.686 11.2697 75.6728C11.2553 75.6596 11.2363 75.6525 11.2168 75.6531C11.207 75.6527 11.1973 75.6543 11.1882 75.6579C11.1791 75.6614 11.1708 75.6667 11.1638 75.6736C11.1568 75.6804 11.1513 75.6886 11.1475 75.6976C11.1438 75.7067 11.1419 75.7164 11.1421 75.7261L10.5966 90.1974C10.5905 90.3741 10.5159 90.5416 10.3885 90.6642C10.2611 90.7869 10.091 90.8552 9.91413 90.8547H7.6604C7.48181 90.8557 7.31001 90.7863 7.18222 90.6616C7.05443 90.5368 6.98093 90.3667 6.97765 90.1882L6.39258 66.0771L16.4786 66.1779L16.7304 90.3665C16.7282 90.4626 16.7057 90.5572 16.6644 90.644C16.6231 90.7308 16.564 90.808 16.4909 90.8704C16.4193 90.932 16.3356 90.978 16.2451 91.0052C16.1547 91.0323 16.0595 91.0402 15.9659 91.0282L13.7803 91.0343C13.6253 91.013 13.4824 90.9393 13.3752 90.8254C13.2681 90.7114 13.2033 90.5642 13.1916 90.4083Z" fill="#2F2E41"/>
    <path d="M6.24344 66.7366C6.1306 66.6934 6.03125 66.6211 5.95553 66.5269C5.87981 66.4328 5.83043 66.3202 5.81243 66.2008L5.71176 52.9498C5.26601 49.9994 4.73878 47.1084 7.31835 45.6135L7.54564 44.9316C7.57041 44.8579 7.61714 44.7935 7.67954 44.7472C7.74195 44.7008 7.81705 44.6747 7.89475 44.6722L12.7882 44.5324C12.8644 44.5298 12.9395 44.5504 13.0037 44.5914C13.0679 44.6324 13.1182 44.692 13.1478 44.7622L13.5118 45.6116L13.641 45.6853C14.8704 46.3861 15.8659 47.4338 16.5029 48.6974C17.14 49.961 17.3903 51.3844 17.2226 52.7896L16.9428 55.1518L16.744 66.1913C16.7414 66.3125 16.7069 66.4308 16.644 66.5344C16.581 66.638 16.4919 66.7231 16.3855 66.7812C14.9639 67.5596 13.389 67.8258 11.8988 67.8258C9.39486 67.8258 7.13109 67.0738 6.24344 66.7366Z" fill="#3F3D56"/>
    <path d="M10.1099 43.6252C9.5489 43.6374 8.99166 43.5306 8.47483 43.312C7.95799 43.0935 7.49327 42.768 7.11119 42.357C6.72911 41.946 6.43832 41.4588 6.25795 40.9275C6.07757 40.3961 6.01168 39.8326 6.06461 39.2739C6.11754 38.7153 6.28809 38.1741 6.56505 37.6861C6.84201 37.1981 7.21912 36.7741 7.67158 36.4422C8.12405 36.1103 8.64163 35.8779 9.19032 35.7603C9.73901 35.6426 10.3064 35.6425 10.8551 35.7597C11.6749 35.262 12.628 34.9271 13.5832 35.0123C14.5384 35.0974 15.4831 35.6645 15.8403 36.5546C16.1975 37.4446 15.8138 38.6177 14.9256 38.9794C14.3561 39.2113 13.7131 39.0989 13.1054 39.0054C12.4978 38.9118 11.8349 38.8508 11.306 39.1644C10.7771 39.4779 10.5394 40.3186 11.0131 40.7106C11.2641 40.9267 11.4434 41.2141 11.527 41.5346C11.6107 41.8551 11.5947 42.1934 11.4811 42.5046C11.2431 43.1202 10.5934 43.6148 10.1099 43.6252Z" fill="#2F2E41"/>
    <path d="M23.9939 94.9881H0.317786C0.277534 94.9881 0.23893 94.9721 0.210468 94.9437C0.182006 94.9152 0.166016 94.8766 0.166016 94.8363C0.166016 94.7961 0.182006 94.7575 0.210468 94.729C0.23893 94.7006 0.277534 94.6846 0.317786 94.6846H23.9939C24.0342 94.6846 24.0728 94.7006 24.1013 94.729C24.1297 94.7575 24.1457 94.7961 24.1457 94.8363C24.1457 94.8766 24.1297 94.9152 24.1013 94.9437C24.0728 94.9721 24.0342 94.9881 23.9939 94.9881Z" fill="#CCCCCC"/>
  </g>
  <defs>
    <clipPath id="clip0_4889_1115">
      <rect width="128.549" height="94.655" fill="white" transform="translate(0.166016 0.333008)"/>
    </clipPath>
  </defs>
</svg>